
        <svg xmlns="http://www.w3.org/2000/svg" xmlns:xlink="http://www.w3.org/1999/xlink" version="1.1" width="3206.896551724138" 
        height="2409.6132879623906" viewBox="0 0 3206.896551724138 2409.6132879623906">
			<rect fill="#393232" width="3206.896551724138" height="2409.6132879623906"/>
			<g transform="scale(10.344827586206897) translate(10, 10)">
				<defs id="SvgjsDefs1082"><linearGradient id="SvgjsLinearGradient1089"><stop id="SvgjsStop1090" stop-color="#8f5e25" offset="0"></stop><stop id="SvgjsStop1091" stop-color="#fbf4a1" offset="0.5"></stop><stop id="SvgjsStop1092" stop-color="#8f5e25" offset="1"></stop></linearGradient><linearGradient id="SvgjsLinearGradient1093"><stop id="SvgjsStop1094" stop-color="#8f5e25" offset="0"></stop><stop id="SvgjsStop1095" stop-color="#fbf4a1" offset="0.5"></stop><stop id="SvgjsStop1096" stop-color="#8f5e25" offset="1"></stop></linearGradient><linearGradient id="SvgjsLinearGradient1097"><stop id="SvgjsStop1098" stop-color="#8f5e25" offset="0"></stop><stop id="SvgjsStop1099" stop-color="#fbf4a1" offset="0.5"></stop><stop id="SvgjsStop1100" stop-color="#8f5e25" offset="1"></stop></linearGradient></defs><g id="SvgjsG1083" featureKey="9id2mP-0" transform="matrix(1.6195663864057646,0,0,1.6195663864057646,64.5214721669648,-6.88963802730804)" fill="url(#SvgjsLinearGradient1089)"><g xmlns="http://www.w3.org/2000/svg"><path d="M33.584,64.018c-3.619-3.229-4.648-6.004-6.289-5.232c-2.729,1.28,3.674,8.07,4.898,8.85s2.561,3.229,2.561,3.229   c-1.17-0.39-2.227-0.392-8.906-1.948c-6.68-1.561-11.578-7.682-11.355-9.798c0.223-2.115-0.389-4.118-2.115-3.618   c-1.725,0.502-1.337,8.404,2.729,13.916c4.063,5.512,8.18,8.158,13.563,9.09c4.501,0.78,7.086,2.935,8.031,3.88   c0.68,0.676-0.638,7.304-1.443,11.024c3.495,1.222,7.188,2.019,11.02,2.335V83.683c0,0,4.063-2.966,0.611-8.867   C43.436,68.916,37.204,67.246,33.584,64.018z"></path><path d="M87.623,55.5c-1.728-0.5-2.339,1.503-2.116,3.618c0.223,2.116-4.675,8.237-11.354,9.798   c-6.681,1.557-7.737,1.559-8.907,1.948c0,0,1.336-2.45,2.562-3.229c1.224-0.779,7.627-7.569,4.899-8.85   c-1.642-0.771-2.672,2.003-6.29,5.232c-3.618,3.229-9.852,4.898-13.303,10.798c-3.451,5.901,0.612,8.867,0.612,8.867v12.063   c3.829-0.316,7.522-1.113,11.017-2.335c-0.803-3.721-2.121-10.349-1.443-11.024c0.946-0.945,3.531-3.1,8.031-3.88   c5.384-0.932,9.501-3.578,13.563-9.09C88.957,63.904,89.348,56.002,87.623,55.5z"></path><path d="M54.462,20.871c-1.555,6.006,0.392,19.695,0.392,19.695c20.28-18.514-1.479-36.312-1.479-36.312   C37.167,26.1,51.786,40.928,51.786,40.928C49.783,34.174,54.462,20.871,54.462,20.871z"></path><path d="M46.417,42.547c-6.055-1.647-13.936-11.426-13.936-11.426c3.819,3.992,15.1,8.934,15.1,8.934   C43.065,16.02,19.389,24.156,19.389,24.156C28.334,46.667,46.417,42.547,46.417,42.547z"></path><path d="M22.083,51.727c14.334,6.354,20.826-3.743,20.826-3.743c-3.545,1.98-11.619,1.031-11.619,1.031   c3.574,0.115,11.027-2.712,11.027-2.712C29.34,37.239,22.083,51.727,22.083,51.727z"></path><path d="M78.477,53.035c-7.099-8.424-14.307-4.043-14.307-4.043c2.85-0.161,7.657,2.924,7.657,2.924   c-2.223-1.174-7.801-1.682-7.801-1.682C69.434,59.953,78.477,53.035,78.477,53.035z"></path><path d="M56.813,43.359c3.865-4.816,15.806-8.094,15.806-8.094c-5.11,1.883-14.011,10.123-14.011,10.123   c23.489,5.379,25.45-19.209,25.45-19.209C60.202,25.402,56.813,43.359,56.813,43.359z"></path></g></g><g id="SvgjsG1084" featureKey="zfl5BF-0" transform="matrix(2.0866312340987943,0,0,2.0866312340987943,-1.627572302898061,153.39358235629174)" fill="url(#SvgjsLinearGradient1093)"><path d="M2.8 20 l-2.02 0 l1.32 -12.8 l3.28 0 l2.46 9.86 l2.46 -9.86 l3.28 0 l1.32 12.8 l-2.02 0 l-1.08 -10.62 l-2.8 10.62 l-2.32 0 l-2.78 -10.62 z M26.16 8.9 c0.92 1.14 1.4 2.72 1.4 4.7 s-0.48 3.56 -1.4 4.7 c-0.5 0.62 -1.14 1.08 -1.88 1.4 s-1.58 0.48 -2.52 0.48 s-1.78 -0.16 -2.52 -0.48 s-1.38 -0.78 -1.88 -1.4 c-0.92 -1.14 -1.4 -2.72 -1.4 -4.7 s0.48 -3.56 1.4 -4.7 c0.5 -0.62 1.14 -1.1 1.88 -1.42 s1.58 -0.48 2.52 -0.48 s1.78 0.16 2.52 0.48 s1.38 0.8 1.88 1.42 z M24.619999999999997 17.04 c0.62 -0.76 0.94 -1.96 0.94 -3.44 c0 -1.5 -0.32 -2.68 -0.94 -3.44 s-1.58 -1.16 -2.86 -1.16 c-1.26 0 -2.22 0.4 -2.84 1.16 s-0.96 1.94 -0.96 3.44 c0 1.48 0.34 2.68 0.96 3.44 s1.58 1.14 2.84 1.14 c1.28 0 2.24 -0.38 2.86 -1.14 z M39.28 9.02 c0.94 1.12 1.4 2.66 1.4 4.58 s-0.46 3.46 -1.4 4.58 c-0.5 0.6 -1.14 1.06 -1.88 1.36 s-1.58 0.46 -2.5 0.46 l-5.12 0 l0 -12.8 l5.12 0 c0.92 0 1.76 0.16 2.5 0.46 s1.38 0.76 1.88 1.36 z M37.76 16.88 c0.62 -0.74 0.92 -1.84 0.92 -3.28 s-0.3 -2.54 -0.92 -3.28 s-1.6 -1.1 -2.86 -1.1 l-3.12 0 l0 8.76 l3.12 0 c1.26 0 2.24 -0.36 2.86 -1.1 z M47.64 20.44 c-1.32 0 -2.56 -0.5 -3.46 -1.4 c-0.86 -0.84 -1.34 -1.96 -1.34 -3.08 l0 -8.76 l2 0 l0 8.76 c0 1.2 1.08 2.48 2.8 2.48 c1.74 0 2.8 -1.28 2.8 -2.48 l0 -8.76 l2 0 l0 8.76 c0 1.12 -0.48 2.24 -1.32 3.08 c-0.9 0.9 -2.14 1.4 -3.48 1.4 z M60.14 20.18 c-1.92 0 -4.38 -0.54 -5.18 -0.84 l0.7 -1.88 c0.74 0.28 3.84 0.92 5.3 0.66 c0.5 -0.08 0.9 -0.54 0.98 -1.06 c0.08 -0.68 -0.42 -1.34 -1.4 -1.8 c-0.6 -0.28 -1.72 -0.76 -2.62 -1.14 c-0.52 -0.22 -0.98 -0.42 -1.26 -0.54 c-0.72 -0.32 -1.32 -0.82 -1.72 -1.4 c-0.38 -0.58 -0.58 -1.24 -0.56 -1.92 c0.02 -0.64 0.22 -1.24 0.6 -1.76 c0.38 -0.54 0.92 -0.94 1.56 -1.18 c0.86 -0.34 2.1 -0.34 3.68 -0.06 c1.2 0.24 2.28 0.58 2.74 0.74 l-0.7 1.88 c-0.36 -0.14 -1.34 -0.44 -2.42 -0.64 c-1.64 -0.32 -2.36 -0.14 -2.58 -0.06 c-0.54 0.2 -0.86 0.62 -0.88 1.14 c-0.02 0.58 0.4 1.12 1.1 1.44 c0.26 0.1 0.72 0.3 1.24 0.52 c0.9 0.4 2.04 0.88 2.68 1.18 c0.92 0.44 1.6 1 2.04 1.7 c0.42 0.68 0.58 1.42 0.48 2.18 c-0.18 1.38 -1.26 2.5 -2.6 2.74 c-0.36 0.06 -0.76 0.1 -1.18 0.1 z  M80.64000000000001 7.220000000000001 l2.02 0 c0.14 1.62 -0.06 3.26 -0.6 4.94 c-0.62 1.9 -1.56 3.56 -2.38 5 c-0.64 1.14 -1.16 2.08 -1.42 2.84 l-2.38 0 c-0.26 -0.76 -0.78 -1.7 -1.42 -2.84 c-0.84 -1.44 -1.78 -3.1 -2.38 -5 c-0.54 -1.68 -0.74 -3.32 -0.6 -4.94 l2 0 c-0.36 3.56 1.26 6.42 2.72 8.96 c0.3 0.54 0.6 1.06 0.86 1.58 c0.28 -0.52 0.58 -1.04 0.88 -1.58 c1.44 -2.54 3.06 -5.4 2.7 -8.96 z M86.84000000000002 20 l-2 0 l0 -12.78 l2 0 l0 12.78 z M98.16000000000001 7.220000000000001 l2.02 0 c0.14 1.62 -0.06 3.26 -0.6 4.94 c-0.62 1.9 -1.56 3.56 -2.38 5 c-0.64 1.14 -1.16 2.08 -1.42 2.84 l-2.38 0 c-0.26 -0.76 -0.78 -1.7 -1.42 -2.84 c-0.84 -1.44 -1.78 -3.1 -2.38 -5 c-0.54 -1.68 -0.74 -3.32 -0.6 -4.94 l2 0 c-0.36 3.56 1.26 6.42 2.72 8.96 c0.3 0.54 0.6 1.06 0.86 1.58 c0.28 -0.52 0.58 -1.04 0.88 -1.58 c1.44 -2.54 3.06 -5.4 2.7 -8.96 z M104.42 17.98 l5.42 0 l0 2 l-7.42 0 l0 -12.78 l6.96 0 l0 2 l-4.96 0 l0 2.96 l4.6 0 l0 2 l-4.6 0 l0 3.82 z M119.64000000000001 7.199999999999999 l2 0 l0 12.8 l-2.24 0 l-5.48 -9.26 l0 9.26 l-2 0 l0 -12.8 l1.1 0 l0.02 0 l1.12 0 l5.48 9.28 l0 -9.28 z M133.96 9.02 c0.94 1.12 1.4 2.66 1.4 4.58 s-0.46 3.46 -1.4 4.58 c-0.5 0.6 -1.14 1.06 -1.88 1.36 s-1.58 0.46 -2.5 0.46 l-5.12 0 l0 -12.8 l5.12 0 c0.92 0 1.76 0.16 2.5 0.46 s1.38 0.76 1.88 1.36 z M132.44 16.88 c0.62 -0.74 0.92 -1.84 0.92 -3.28 s-0.3 -2.54 -0.92 -3.28 s-1.6 -1.1 -2.86 -1.1 l-3.12 0 l0 8.76 l3.12 0 c1.26 0 2.24 -0.36 2.86 -1.1 z M139.76000000000002 20 l-2 0 l0 -12.78 l2 0 l0 12.78 z"></path></g><g id="SvgjsG1085" featureKey="pYXC9J-0" transform="matrix(0.4656739877065649,0,0,0.4656739877065649,64.56226709106173,203.4481156425631)" fill="url(#SvgjsLinearGradient1097)"><path d="M8.32 5.48 c1 0 1.9367 0.18664 2.81 0.55998 s1.59 0.92 2.15 1.64 l-1.6 1.22 c-0.86666 -1.08 -2.0066 -1.62 -3.42 -1.62 c-1.5333 0 -2.7966 0.54666 -3.79 1.64 s-1.49 2.4666 -1.49 4.12 c0 1.6 0.49 2.92 1.47 3.96 s2.25 1.56 3.81 1.56 s2.7934 -0.63334 3.7 -1.9 l1.62 1.22 c-0.56 0.74666 -1.3067 1.3467 -2.24 1.8 s-1.9733 0.68 -3.12 0.68 c-1.36 0 -2.5934 -0.33 -3.7 -0.99 s-1.98 -1.5667 -2.62 -2.72 s-0.96 -2.3634 -0.96 -3.63 c0 -2.1866 0.68666 -3.99 2.06 -5.41 s3.1466 -2.13 5.32 -2.13 z M28.664 5.84 l0 1.8 l-7.22 0 l0 4.22 l6.72 0 l0 1.8 l-6.72 0 l0 4.54 l7.58 0 l0 1.8 l-9.5 0 l0 -14.16 l9.14 0 z M37.888000000000005 5.84 l7.8 11.64 l0.04 0 l0 -11.64 l1.92 0 l0 14.16 l-2.44 0 l-7.88 -11.64 l-0.04 0 l0 11.64 l-1.92 0 l0 -14.16 l2.52 0 z M64.352 5.84 l0 1.8 l-4.56 0 l0 12.36 l-1.92 0 l0 -12.36 l-4.56 0 l0 -1.8 l11.04 0 z M74.356 5.84 l6.06 14.16 l-2.24 0 l-1.42 -3.5 l-6.74 0 l-1.4 3.5 l-2.24 0 l6.24 -14.16 l1.74 0 z M70.696 14.82 l5.36 0 l-2.64 -6.5 l-0.04 0 z M90.96000000000001 5.84 c1.3867 0 2.4734 0.34666 3.26 1.04 s1.18 1.6667 1.18 2.92 c0 0.94666 -0.32334 1.7733 -0.97 2.48 s-1.4767 1.1267 -2.49 1.26 l-0.02 0 l4.02 6.46 l-2.4 0 l-3.6 -6.24 l-2.14 0 l0 6.24 l-1.92 0 l0 -14.16 l5.08 0 z M90.4 12.08 c1 0 1.7433 -0.18336 2.23 -0.55002 s0.73 -0.94332 0.73 -1.73 c0 -1.52 -0.98666 -2.28 -2.96 -2.28 l-2.6 0 l0 4.56 l2.6 0 z M120.18799999999999 5.84 l0 1.8 l-8.02 10.56 l8.14 0 l0 1.8 l-10.58 0 l0 -1.78 l8.06 -10.58 l-7.82 0 l0 -1.8 l10.22 0 z M132.572 5.84 l6.06 14.16 l-2.24 0 l-1.42 -3.5 l-6.74 0 l-1.4 3.5 l-2.24 0 l6.24 -14.16 l1.74 0 z M128.91199999999998 14.82 l5.36 0 l-2.64 -6.5 l-0.04 0 z M158.35999999999999 5.84 c1.3733 0 2.4566 0.34 3.25 1.02 s1.19 1.66 1.19 2.94 c0 1.24 -0.39334 2.21 -1.18 2.91 s-1.8733 1.05 -3.26 1.05 l-3.16 0 l0 6.24 l-1.92 0 l0 -14.16 l5.08 0 z M157.79999999999998 12.08 c1 0 1.7433 -0.18336 2.23 -0.55002 s0.73 -0.94332 0.73 -1.73 c0 -1.52 -0.98666 -2.28 -2.96 -2.28 l-2.6 0 l0 4.56 l2.6 0 z M172.82399999999998 5.48 c1.84 0 3.2 0.54006 4.08 1.6201 l-1.56 1.42 c-0.24 -0.37334 -0.58 -0.67334 -1.02 -0.9 s-0.94666 -0.34 -1.52 -0.34 c-0.82666 0 -1.49 0.20334 -1.99 0.61 s-0.75 0.93 -0.75 1.57 c0 1.0667 0.70666 1.8133 2.12 2.24 l1.78 0.58 c1 0.32 1.7633 0.76666 2.29 1.34 s0.79 1.36 0.79 2.36 c0 1.3067 -0.46334 2.3634 -1.39 3.17 s-2.1034 1.21 -3.53 1.21 c-2.04 0 -3.5466 -0.65334 -4.52 -1.96 l1.58 -1.36 c0.30666 0.48 0.72666 0.85334 1.26 1.12 s1.1133 0.4 1.74 0.4 c0.78666 0 1.4533 -0.22666 2 -0.68 s0.82 -1.0133 0.82 -1.68 c0 -0.49334 -0.16666 -0.90668 -0.5 -1.24 s-0.93334 -0.63334 -1.8 -0.9 l-1.26 -0.42 c-1.2667 -0.42666 -2.1534 -0.97 -2.66 -1.63 s-0.76 -1.51 -0.76 -2.55 c0 -1.1067 0.44666 -2.0466 1.34 -2.82 s2.0466 -1.16 3.46 -1.16 z M185.428 5.84 l0 14.16 l-1.92 0 l0 -14.16 l1.92 0 z M194.612 5.84 l0 5.88 l7.34 0 l0 -5.88 l1.92 0 l0 14.16 l-1.92 0 l0 -6.48 l-7.34 0 l0 6.48 l-1.92 0 l0 -14.16 l1.92 0 z M217.63599999999997 5.48 c2.1066 0 3.8634 0.69998 5.27 2.1 s2.11 3.18 2.11 5.34 c0 1.3733 -0.31334 2.63 -0.94 3.77 s-1.51 2.0366 -2.65 2.69 s-2.4034 0.98 -3.79 0.98 c-1.3733 0 -2.6266 -0.32334 -3.76 -0.97 s-2.02 -1.54 -2.66 -2.68 s-0.96 -2.4034 -0.96 -3.79 c0 -2.1066 0.69 -3.8734 2.07 -5.3 s3.15 -2.14 5.31 -2.14 z M212.29599999999996 12.92 c0 1.6 0.49998 2.94 1.5 4.02 s2.28 1.62 3.84 1.62 c1.5333 0 2.8066 -0.53334 3.82 -1.6 s1.52 -2.4134 1.52 -4.04 c0 -1.6133 -0.5 -2.9566 -1.5 -4.03 s-2.2866 -1.61 -3.86 -1.61 c-1.52 0 -2.7866 0.53334 -3.8 1.6 s-1.52 2.4134 -1.52 4.04 z M240.83999999999997 5.84 l0 1.8 l-4.56 0 l0 12.36 l-1.92 0 l0 -12.36 l-4.56 0 l0 -1.8 l11.04 0 z M255.644 5.84 l0 1.8 l-7.22 0 l0 4.22 l6.72 0 l0 1.8 l-6.72 0 l0 4.54 l7.58 0 l0 1.8 l-9.5 0 l0 -14.16 l9.14 0 z M267.428 5.84 c1.3867 0 2.4734 0.34666 3.26 1.04 s1.18 1.6667 1.18 2.92 c0 0.94666 -0.32334 1.7733 -0.97 2.48 s-1.4767 1.1267 -2.49 1.26 l-0.02 0 l4.02 6.46 l-2.4 0 l-3.6 -6.24 l-2.14 0 l0 6.24 l-1.92 0 l0 -14.16 l5.08 0 z M266.868 12.08 c1 0 1.7433 -0.18336 2.23 -0.55002 s0.73 -0.94332 0.73 -1.73 c0 -1.52 -0.98666 -2.28 -2.96 -2.28 l-2.6 0 l0 4.56 l2.6 0 z M284.372 5.84 l6.06 14.16 l-2.24 0 l-1.42 -3.5 l-6.74 0 l-1.4 3.5 l-2.24 0 l6.24 -14.16 l1.74 0 z M280.712 14.82 l5.36 0 l-2.64 -6.5 l-0.04 0 z M300.976 5.84 c1.3733 0 2.4566 0.34 3.25 1.02 s1.19 1.66 1.19 2.94 c0 1.24 -0.39334 2.21 -1.18 2.91 s-1.8733 1.05 -3.26 1.05 l-3.16 0 l0 6.24 l-1.92 0 l0 -14.16 l5.08 0 z M300.416 12.08 c1 0 1.7433 -0.18336 2.23 -0.55002 s0.73 -0.94332 0.73 -1.73 c0 -1.52 -0.98666 -2.28 -2.96 -2.28 l-2.6 0 l0 4.56 l2.6 0 z M313.3 5.84 l0 14.16 l-1.92 0 l0 -14.16 l1.92 0 z M326.90400000000005 5.84 l0 10.2 c0 1.3333 -0.38666 2.3866 -1.16 3.16 s-1.7667 1.16 -2.98 1.16 c-1.04 0 -1.8933 -0.26666 -2.56 -0.8 s-1.0933 -1.3 -1.28 -2.3 l1.88 -0.42 c0.10666 0.53334 0.32666 0.95334 0.66 1.26 s0.76668 0.46 1.3 0.46 c0.74666 0 1.3033 -0.25 1.67 -0.75 s0.55 -1.29 0.55 -2.37 l0 -9.6 l1.92 0 z M335.48800000000006 5.84 l0 8.74 c0 1.16 0.32334 2.1134 0.97 2.86 s1.51 1.12 2.59 1.12 s1.9433 -0.37334 2.59 -1.12 s0.97 -1.7 0.97 -2.86 l0 -8.74 l1.92 0 l0 9.06 c0 0.97334 -0.23 1.8833 -0.69 2.73 s-1.1133 1.5133 -1.96 2 s-1.79 0.73 -2.83 0.73 c-1.6 0 -2.9134 -0.52334 -3.94 -1.57 s-1.54 -2.3434 -1.54 -3.89 l0 -9.06 l1.92 0 z"></path></g>
			</g>
		</svg>
	