<?xml version="1.0" encoding="UTF-8"?>
<svg id="OBJECTS" xmlns="http://www.w3.org/2000/svg" viewBox="0 0 401.99 409.85">
  <g>
    <circle cx="195.67" cy="166.81" r="166.81" transform="translate(-60.65 187.22) rotate(-45)" style="fill: #1591b7; opacity: .1;"/>
    <circle cx="195.67" cy="166.81" r="154.15" transform="translate(-60.65 187.22) rotate(-45)" style="fill: #1591b7; opacity: .15;"/>
  </g>
  <g>
    <g>
      <g>
        <g>
          <path d="m400.35,294.64s0,0-.02.01c-.09.04-.43.2-1.02.47-7.1,3.29-49.28,23.38-88.15,51.33-7.61,5.47-15.09,11.23-22.14,17.23-13.21,11.21-24.96,23.24-33.38,35.65-.34.49-.67.99-1,1.49h-2.92c.04-.31.1-.63.16-.94v-.02c.06-.33.13-.65.2-.98.83-3.99,2.06-7.91,3.7-11.66.47-1.08.97-2.15,1.51-3.21.05-.1.1-.19.15-.29,1.72-3.33,3.84-7.19,6.42-11.4,3.88-6.4,8.77-13.61,14.74-20.99h0c.89-1.1,1.8-2.2,2.73-3.3,22.78-26.87,59.88-54.78,115.23-53.5,1.25.03,2.51.07,3.78.13Z" style="fill: #1591b7;"/>
          <path d="m401.99,250.36s0,0-.02.01c-.08.05-.41.24-.97.56-6.75,3.95-46.87,27.91-82.93,59.39-22.92,19.98-44.2,42.99-54.25,65.82-.05-2.36.03-4.71.25-7.05t0-.02c.03-.34.06-.67.1-1,.58-5.24,1.85-10.38,3.8-15.3.03-.1.07-.2.11-.3,3.52-8.76,9.31-21.12,18.02-34.24h.01c19.78-29.82,54.61-63.56,112.1-67.64,1.25-.09,2.5-.17,3.78-.23Z" style="fill: #1591b7;"/>
        </g>
        <path d="m363.37,356.25c-.07.02-.35.08-.83.19-5.79,1.38-40.3,9.91-73.53,24.82-11.72,5.25-23.29,11.28-33.37,18.07-.73.5-1.45.99-2.16,1.49h-10.19c3.05-3.79,7.24-8.56,12.49-13.61,2.49-2.39,5.23-4.86,8.2-7.3h.01c7.04-5.8,15.41-11.54,25.03-16.24,19.1-9.35,43.14-14.61,71.57-8.1.92.21,1.85.43,2.78.67Z" style="fill: #1591b7;"/>
      </g>
      <g>
        <g>
          <path d="m150.07,400.82h-3.49c-.06-.11-.13-.21-.22-.32-8.42-12.42-20.18-24.47-33.41-35.68-7.05-6-14.53-11.75-22.11-17.21-38.86-27.95-81.06-48.03-88.15-51.34-.59-.26-.93-.42-1.02-.46,0-.01-.01-.01-.01-.01,1.27-.06,2.52-.1,3.77-.13,55.25-1.28,92.32,26.53,115.11,53.35t.01.02c.98,1.14,1.93,2.29,2.84,3.42h.01c5.97,7.39,10.85,14.6,14.74,20.99,2.57,4.21,4.7,8.08,6.42,11.41.05.1.1.19.14.29.54,1.05,1.04,2.12,1.51,3.2,1.64,3.75,2.88,7.66,3.71,11.66.06.26.11.53.15.79Z" style="fill: #1591b7;"/>
          <path d="m0,251.52s0,0,.02.01c.08.05.41.24.97.56,6.75,3.95,46.87,27.91,82.93,59.39,22.92,19.98,44.2,42.99,54.25,65.82.05-2.36-.03-4.71-.25-7.05t0-.02c-.03-.34-.06-.67-.1-1-.58-5.24-1.85-10.38-3.8-15.3-.03-.1-.07-.2-.11-.3-3.52-8.76-9.31-21.12-18.02-34.24h-.01c-19.78-29.82-54.61-63.56-112.1-67.64-1.25-.09-2.5-.17-3.78-.23Z" style="fill: #1591b7;"/>
        </g>
        <path d="m157.78,400.82h-10.94c-.16-.11-.32-.22-.48-.32-10.09-6.8-21.64-12.83-33.37-18.08-33.23-14.91-67.75-23.45-73.54-24.82-.47-.11-.75-.17-.82-.19h-.02c.94-.25,1.87-.47,2.79-.68,28.42-6.51,52.46-1.26,71.55,8.09,9.63,4.7,18.01,10.44,25.06,16.25h0c2.97,2.45,5.7,4.91,8.19,7.3,4.74,4.56,8.61,8.87,11.57,12.45Z" style="fill: #1591b7;"/>
      </g>
    </g>
    <g>
      <path d="m28.81,247.91h91.75s-10.69-3.88-14.96-11.87c-4.39-8.2-19.03-7.49-20.95.5,0,0-8.84-23.64-30.93-19.48-22.09,4.15-14.43,22.22-14.43,22.22,0,0-13-6.19-10.49,8.64Z" style="fill: #fff;"/>
      <path d="m268.53,73.84h91.75s-10.69-3.88-14.96-11.87c-4.39-8.2-19.03-7.49-20.95.5,0,0-8.84-23.64-30.93-19.48-22.09,4.15-14.43,22.22-14.43,22.22,0,0-13-6.19-10.49,8.64Z" style="fill: #fff;"/>
      <path d="m298.91,229.7h91.75s-10.69-3.88-14.96-11.87c-4.39-8.2-19.03-7.49-20.95.5,0,0-8.84-23.64-30.93-19.48-22.09,4.15-14.43,22.22-14.43,22.22,0,0-13-6.19-10.49,8.64Z" style="fill: #fff;"/>
      <path d="m116.81,109.76H25.06s10.69-3.88,14.96-11.87c4.39-8.2,19.03-7.49,20.95.5,0,0,8.84-23.64,30.93-19.48,22.09,4.15,14.43,22.22,14.43,22.22,0,0,13-6.19,10.49,8.64Z" style="fill: #fff;"/>
    </g>
    <g>
      <g>
        <g>
          <g>
            <g>
              <path d="m221.21,70.98s-11.29,11.82-10.79,31.7" style="fill: none; stroke: #1591b7; stroke-miterlimit: 10; stroke-width: 1.08px;"/>
              <g>
                <path d="m217.34,76.74l3.17-14.44c.28-1.27,1.53-2.07,2.79-1.79h0c1.27.28,2.07,1.53,1.79,2.79l-3.17,14.44c-.28,1.27-1.53,2.07-2.79,1.79h0c-1.27-.28-2.07-1.53-1.79-2.79Z" style="fill: #edc757;"/>
                <path d="m214.5,66.15l14.44,3.17c1.27.28,2.07,1.53,1.79,2.79h0c-.28,1.27-1.53,2.07-2.79,1.79l-14.44-3.17c-1.27-.28-2.07-1.53-1.79-2.79h0c.28-1.27,1.53-2.07,2.79-1.79Z" style="fill: #edc757;"/>
                <path d="m213.72,72.03l12.45-7.96c1.09-.7,2.54-.38,3.24.71h0c.7,1.09.38,2.54-.71,3.24l-12.45,7.96c-1.09.7-2.54.38-3.24-.71h0c-.7-1.09-.38-2.54.71-3.24Z" style="fill: #c33e5d;"/>
                <path d="m219.21,62.53l7.96,12.45c.7,1.09.38,2.54-.71,3.24h0c-1.09.7-2.54.38-3.24-.71l-7.96-12.45c-.7-1.09-.38-2.54.71-3.24h0c1.09-.7,2.54-.38,3.24.71Z" style="fill: #c33e5d;"/>
                <path d="m218.61,69.37c-.33,1.49.62,2.97,2.11,3.3,1.49.33,2.97-.62,3.3-2.11s-.62-2.97-2.11-3.3c-1.49-.33-2.97.62-3.3,2.11Z" style="fill: #fff;"/>
              </g>
            </g>
            <path d="m225.7,82.63c-8.73.53-12.24,4.65-13.64,7.97-.99,2.34-.94,4.29-.94,4.29,0,0,1.91.39,4.39-.19,3.51-.81,8.17-3.56,10.19-12.07Z" style="fill: #1591b7;"/>
          </g>
          <g>
            <g>
              <path d="m170.3,70.91s11.29,11.82,10.79,31.7" style="fill: none; stroke: #1591b7; stroke-miterlimit: 10; stroke-width: 1.08px;"/>
              <g>
                <path d="m174.18,76.67l-3.17-14.44c-.28-1.27-1.53-2.07-2.79-1.79h0c-1.27.28-2.07,1.53-1.79,2.79l3.17,14.44c.28,1.27,1.53,2.07,2.79,1.79h0c1.27-.28,2.07-1.53,1.79-2.79Z" style="fill: #edc757;"/>
                <path d="m177.01,66.07l-14.44,3.17c-1.27.28-2.07,1.53-1.79,2.79h0c.28,1.27,1.53,2.07,2.79,1.79l14.44-3.17c1.27-.28,2.07-1.53,1.79-2.79h0c-.28-1.27-1.53-2.07-2.79-1.79Z" style="fill: #edc757;"/>
                <path d="m177.79,71.96l-12.45-7.96c-1.09-.7-2.54-.38-3.24.71h0c-.7,1.09-.38,2.54.71,3.24l12.45,7.96c1.09.7,2.54.38,3.24-.71h0c.7-1.09.38-2.54-.71-3.24Z" style="fill: #c33e5d;"/>
                <path d="m172.3,62.46l-7.96,12.45c-.7,1.09-.38,2.54.71,3.24h0c1.09.7,2.54.38,3.24-.71l7.96-12.45c.7-1.09.38-2.54-.71-3.24h0c-1.09-.7-2.54-.38-3.24.71Z" style="fill: #c33e5d;"/>
                <path d="m172.91,69.3c.33,1.49-.62,2.97-2.11,3.3-1.49.33-2.97-.62-3.3-2.11-.33-1.49.62-2.97,2.11-3.3s2.97.62,3.3,2.11Z" style="fill: #fff;"/>
              </g>
            </g>
            <path d="m165.82,82.55c8.73.53,12.24,4.65,13.64,7.97.99,2.34.94,4.29.94,4.29,0,0-1.91.39-4.39-.19-3.51-.81-8.17-3.56-10.19-12.07Z" style="fill: #1591b7;"/>
          </g>
          <g>
            <g>
              <path d="m181.42,69.02c8.73.53,12.24,4.65,13.64,7.97.99,2.34.94,4.29.94,4.29,0,0-1.91.39-4.39-.19-3.51-.81-8.17-3.56-10.19-12.07Z" style="fill: #1591b7;"/>
              <path d="m210.07,69.02c-8.73.53-12.24,4.65-13.64,7.97-.99,2.34-.94,4.29-.94,4.29,0,0,1.91.39,4.39-.19,3.51-.81,8.17-3.56,10.19-12.07Z" style="fill: #1591b7;"/>
            </g>
            <g>
              <line x1="195.85" y1="59.99" x2="195.85" y2="88.91" style="fill: none; stroke: #1591b7; stroke-miterlimit: 10; stroke-width: 1.08px;"/>
              <g>
                <g>
                  <path d="m199.75,55.93c0,2.24-1.82,4.06-4.06,4.06s-4.06-1.82-4.06-4.06,1.82-4.06,4.06-4.06,4.06,1.82,4.06,4.06Z" style="fill: #fff;"/>
                  <path d="m203.81,59.52c0,2.24-1.82,4.06-4.06,4.06s-4.06-1.82-4.06-4.06,1.82-4.06,4.06-4.06,4.06,1.82,4.06,4.06Z" style="fill: #fff;"/>
                  <circle cx="198.72" cy="64.05" r="4.06" style="fill: #fff;"/>
                  <path d="m195.69,59.52c0,2.24-1.82,4.06-4.06,4.06s-4.06-1.82-4.06-4.06,1.82-4.06,4.06-4.06,4.06,1.82,4.06,4.06Z" style="fill: #fff;"/>
                  <path d="m196.98,64.05c0,2.24-1.82,4.06-4.06,4.06s-4.06-1.82-4.06-4.06,1.82-4.06,4.06-4.06,4.06,1.82,4.06,4.06Z" style="fill: #fff;"/>
                </g>
                <path d="m198.72,60.25c0,1.67-1.36,3.03-3.03,3.03s-3.03-1.36-3.03-3.03,1.36-3.03,3.03-3.03,3.03,1.36,3.03,3.03Z" style="fill: #edc757;"/>
              </g>
            </g>
          </g>
          <g>
            <g>
              <path d="m151.9,91.45s11.46,6.34,13.63,13.64" style="fill: none; stroke: #1591b7; stroke-miterlimit: 10; stroke-width: 1.08px;"/>
              <path d="m148.24,102.7c5.25-4.81,9.64-4.54,12.37-3.49,1.94.74,3.04,1.88,3.04,1.88,0,0-.85,1.34-2.59,2.47-2.46,1.6-6.7,2.77-12.83-.85Z" style="fill: #1591b7;"/>
            </g>
            <g>
              <g>
                <path d="m154.46,85.23c1.11,1.59.73,3.77-.85,4.89-1.59,1.11-3.77.73-4.89-.85-1.11-1.59-.73-3.77.85-4.89,1.59-1.11,3.77-.73,4.89.85Z" style="fill: #fff;"/>
                <path d="m159.12,85.75c1.11,1.58.73,3.77-.85,4.89-1.59,1.11-3.77.73-4.89-.85-1.11-1.59-.73-3.77.85-4.89,1.59-1.11,3.77-.73,4.89.85Z" style="fill: #fff;"/>
                <path d="m160.63,89.46c1.11,1.59.73,3.77-.85,4.89-1.58,1.11-3.77.73-4.89-.85-1.11-1.59-.73-3.77.85-4.89s3.77-.73,4.89.85Z" style="fill: #fff;"/>
                <path d="m153.38,89.78c1.11,1.59.73,3.77-.85,4.89-1.59,1.11-3.77.73-4.89-.85-1.11-1.59-.73-3.77.85-4.89,1.59-1.11,3.77-.73,4.89.85Z" style="fill: #fff;"/>
                <path d="m156.54,92.34c1.11,1.59.73,3.77-.85,4.89-1.59,1.11-3.77.73-4.89-.85-1.11-1.59-.73-3.77.85-4.89,1.59-1.11,3.77-.73,4.89.85Z" style="fill: #fff;"/>
              </g>
              <path d="m155.88,88.79c.83,1.18.55,2.81-.64,3.64-1.18.83-2.81.55-3.64-.64-.83-1.18-.55-2.81.64-3.64,1.18-.83,2.81-.55,3.64.64Z" style="fill: #edc757;"/>
            </g>
          </g>
          <g>
            <g>
              <path d="m240.74,91.09s-11.46,6.34-13.63,13.64" style="fill: none; stroke: #1591b7; stroke-miterlimit: 10; stroke-width: 1.08px;"/>
              <path d="m244.4,102.35c-5.25-4.82-9.64-4.54-12.37-3.49-1.93.74-3.04,1.88-3.04,1.88,0,0,.85,1.34,2.59,2.47,2.46,1.6,6.7,2.77,12.83-.85Z" style="fill: #1591b7;"/>
            </g>
            <g>
              <g>
                <path d="m238.18,84.87c-1.11,1.59-.73,3.77.85,4.89,1.59,1.11,3.77.73,4.89-.85,1.11-1.59.73-3.77-.85-4.89-1.59-1.11-3.77-.73-4.89.85Z" style="fill: #fff;"/>
                <path d="m233.52,85.4c-1.11,1.59-.73,3.77.85,4.89,1.58,1.11,3.77.73,4.89-.85,1.11-1.59.73-3.77-.85-4.89-1.59-1.11-3.77-.73-4.89.85Z" style="fill: #fff;"/>
                <path d="m232.01,89.11c-1.11,1.59-.73,3.77.85,4.89,1.59,1.11,3.77.73,4.89-.85,1.11-1.59.73-3.77-.85-4.89-1.58-1.11-3.77-.73-4.89.85Z" style="fill: #fff;"/>
                <path d="m239.26,89.43c-1.11,1.59-.73,3.77.85,4.89,1.58,1.11,3.77.73,4.89-.85,1.11-1.59.73-3.77-.85-4.89-1.59-1.11-3.77-.73-4.89.85Z" style="fill: #fff;"/>
                <path d="m236.1,91.99c-1.11,1.59-.73,3.77.85,4.89,1.58,1.11,3.77.73,4.89-.85,1.11-1.59.73-3.77-.85-4.89s-3.77-.73-4.89.85Z" style="fill: #fff;"/>
              </g>
              <path d="m236.77,88.44c-.83,1.18-.55,2.81.64,3.64,1.18.83,2.81.55,3.64-.64.83-1.18.55-2.81-.64-3.64-1.18-.83-2.81-.55-3.64.64Z" style="fill: #edc757;"/>
            </g>
          </g>
        </g>
        <g>
          <g>
            <circle cx="170.25" cy="111.3" r="12.13" style="fill: #ff83a4;"/>
            <circle cx="226.17" cy="111.3" r="12.13" style="fill: #ff83a4;"/>
            <circle cx="211.84" cy="104.15" r="12.13" style="fill: #ff83a4;"/>
            <circle cx="182.38" cy="104.15" r="12.13" style="fill: #ff83a4;"/>
            <circle cx="196.58" cy="99.79" r="12.13" transform="translate(66.59 277.85) rotate(-80.78)" style="fill: #ff83a4;"/>
          </g>
          <g>
            <g>
              <g>
                <path d="m219.97,104.11s-3.39,2.63-3.57,8.09" style="fill: none; stroke: #ca3763; stroke-miterlimit: 10; stroke-width: .68px;"/>
                <path d="m175.11,104.11s3.39,2.63,3.57,8.09" style="fill: none; stroke: #ca3763; stroke-miterlimit: 10; stroke-width: .68px;"/>
              </g>
              <g>
                <path d="m193.91,105.09s3.39,2.63,3.57,8.09" style="fill: none; stroke: #ca3763; stroke-miterlimit: 10; stroke-width: .68px;"/>
                <path d="m199.26,105.09s-3.39,2.63-3.57,8.09" style="fill: none; stroke: #ca3763; stroke-miterlimit: 10; stroke-width: .68px;"/>
              </g>
              <g>
                <path d="m188.81,96.12s.22,4.29-3.8,7.99" style="fill: none; stroke: #ca3763; stroke-miterlimit: 10; stroke-width: .68px;"/>
                <path d="m204.23,95.94s-.22,4.29,3.8,7.99" style="fill: none; stroke: #ca3763; stroke-miterlimit: 10; stroke-width: .68px;"/>
              </g>
            </g>
            <path d="m199.38,88.02s4.26.54,7.19,5.15" style="fill: none; stroke: #ca3763; stroke-miterlimit: 10; stroke-width: .68px;"/>
            <path d="m194.1,87.89s-4.26.54-7.19,5.15" style="fill: none; stroke: #ca3763; stroke-miterlimit: 10; stroke-width: .68px;"/>
          </g>
        </g>
      </g>
      <g>
        <path d="m321.23,358.81c-.44,3.23-1.08,6.37-1.95,9.38l-.15-.03-26.45-4.77-4.4-.79-21.19-72.28-.09-.29-10.81-36.9,38.06-3.9s33.14,64.17,26.97,109.57Z" style="fill: #f9b7c8;"/>
        <polygon points="313.57 297.84 291.87 321.43 273.12 306.2 313.57 297.84" style="fill: #de4e6a; opacity: .3;"/>
      </g>
      <g>
        <path d="m139.77,262.07l-27.26,93.01-.08.28-4.75,16.17-6.77,1.22-24.25,4.37c-.22-.76-.42-1.52-.62-2.3,0-.01-.01-.02,0-.03-.79-3.22-1.35-6.59-1.7-10.08-4.69-45.89,25.57-111.4,25.57-111.4l39.85,8.76Z" style="fill: #f9b7c8;"/>
        <polygon points="83.2 298.98 118.86 333.4 126.09 308.71 83.2 298.98" style="fill: #de4e6a; opacity: .3;"/>
      </g>
      <g>
        <path d="m275.04,319.46c-2.15,31.51-8.13,68.05-23.26,90.39l-51.06-.14-51.06.14c-1.13-1.68-2.22-3.43-3.25-5.27-27.15-48.01-20.34-145.52-20.34-145.52l72.44-9.33v-.42l.6-.07,1.61.2,1.61-.2.6.07v.42l72.44,9.33s1.91,27.45-.34,60.4Z" style="fill: #fff;"/>
        <path d="m275.04,319.46c-2.15,31.51-8.13,68.05-23.26,90.39l-51.06-.14-51.06.14c-1.13-1.68-2.22-3.43-3.25-5.27,129.66,18.48,123.6-90.2,123.6-90.2l5.03,5.08Z" style="fill: #1591b7; opacity: .1;"/>
        <g>
          <polygon points="296.5 252.28 320.08 295.84 261.7 312.17 249.57 259.23 296.5 252.28" style="fill: #fff;"/>
          <polygon points="99.92 253.31 76.34 296.86 134.72 313.2 146.85 260.25 99.92 253.31" style="fill: #fff;"/>
        </g>
        <g>
          <line x1="126.09" y1="310.78" x2="134.99" y2="278.34" style="fill: none; stroke: #a3d5e6; stroke-miterlimit: 10; stroke-width: 1px;"/>
          <line x1="262.78" y1="275.6" x2="273.12" y2="303.79" style="fill: none; stroke: #a3d5e6; stroke-miterlimit: 10; stroke-width: 1px;"/>
        </g>
      </g>
      <g>
        <path d="m252.65,133.63c-.03,2.42-.19,4.85-.47,7.31-.21,1.81-.49,3.62-.83,5.38-.58,3.05-1.35,6.01-2.3,8.87-.02.06-.04.13-.06.19-1.41,4.28-3.22,8.33-5.35,12.1-.23.42-.47.84-.73,1.26-3.26,5.52-7.23,10.42-11.73,14.54-2.96,2.7-6.16,5.06-9.53,7.04-1.92,1.13-3.9,2.12-5.94,2.99-.01.01-.02.01-.03.01-.88.38-1.76.73-2.66,1.04-1.22.44-2.49.85-3.77,1.19-.49.14-.99.27-1.47.35-5.23,1.27-10.7,1.64-16.2,1.01-4.15-.47-8.2-1.51-12.09-3.02-2.12-.83-4.2-1.8-6.2-2.92-2.61-1.42-5.12-3.09-7.5-4.95-1.36-1.07-2.67-2.19-3.95-3.4-4.5-4.2-8.44-9.16-11.62-14.65-.05-.08-.11-.17-.16-.25-2.24-3.91-4.1-8.1-5.52-12.48-.59-1.83-1.1-3.67-1.53-5.55-.28-1.21-.53-2.43-.74-3.66-.61-3.52-.94-7.13-.95-10.8,0-.5.01-.99.02-1.5.04-1.96.18-3.97.41-5.95.03-.3.07-.59.12-.88.28-2.32.68-4.59,1.15-6.82.1-.43.19-.86.28-1.29.38-1.64.81-3.24,1.29-4.81.4-1.34.84-2.66,1.33-3.95h103.04c.98,2.83,1.77,5.75,2.36,8.77.05.22.09.44.13.68.39,2.04.69,4.13.88,6.24.16,1.6.25,3.23.3,4.86.03,1.01.03,2.03.02,3.05Z" style="fill: #3f3d67;"/>
        <g>
          <path d="m239.03,131.82c-.05,1.74-.15,3.47-.28,5.18-.27,3.51-.67,6.97-1.22,10.38-.76,4.78-1.78,9.44-3.08,13.98h0c-1.38,4.91-3.08,9.65-5.07,14.24-1.93,4.48-4.15,8.79-6.65,12.94-.35.59-.7,1.19-1.08,1.78-1.61,2.57-3.32,5.06-5.13,7.49h0c-4.57,6.13-9.79,11.79-15.64,16.91-1.18,1.06-2.39,2.08-3.62,3.07-1.97,1.59-4,3.12-6.1,4.61-12.75,9.01-27.8,15.87-44.92,20.1-4.44,1.09-9.03,2.01-13.74,2.75h-.01c-1.56.26-3.16.48-4.75.68-5.35.67-10.41.69-15.18.14-1.83-.21-3.6-.5-5.34-.88h-.01c-16.5-3.5-29.13-13.98-37.58-26.91-21.45-32.85-15.84-81.61,22.3-72.62,6.67,1.57,12.52,2.28,17.64,2.31.65.02,1.29.01,1.91-.01h.11c10.61-.3,17.89-3.62,22.76-8.26,0,0,.01-.01.02-.02,1.35-1.29,2.52-2.69,3.51-4.14,1.89-2.74,3.17-5.69,3.99-8.63.65-2.32,1.01-4.64,1.15-6.82.02-.42.04-.84.05-1.26l.23-.02,7.49-.76,2.66-.28,2.26-.22,19.06-1.93,3.41-.35,19.08-1.92,32.51-3.3h8.32c.3,2.52.55,5.03.7,7.5.34,4.83.41,9.6.24,14.28Z" style="fill: #3f3d67;"/>
          <path d="m325.27,217.67h-.01c-7.92,12.42-19.66,22.64-34.94,26.79-1.73.48-3.51.86-5.35,1.17h-.01c-5.63.95-11.7,1.11-18.18.29-.58-.08-1.16-.15-1.73-.25h-.01c-5.87-.8-11.53-1.88-16.99-3.23-17.62-4.37-33.07-11.56-46.04-20.99-1.62-1.18-3.21-2.4-4.76-3.65-1.59-1.29-3.14-2.61-4.65-3.97-1.56-1.41-3.07-2.84-4.53-4.31-3.3-3.32-6.37-6.83-9.19-10.52-1.99-2.59-3.87-5.26-5.6-8.02-.25-.39-.5-.77-.74-1.16-.21-.31-.39-.65-.58-.96-3.16-5.21-5.88-10.69-8.14-16.42h0c-1.45-3.61-2.7-7.31-3.77-11.09-1.28-4.5-2.3-9.1-3.04-13.83-.61-3.7-1.03-7.45-1.3-11.26-.15-1.99-.24-4-.28-6.02h0c-.11-4.18-.01-8.4.28-12.68.16-2.48.4-4.98.71-7.5h8.32l32.51,3.3,41.53,4.21,2.13.21,3.21.33,7.2.72h.11c0,.23.01.45.02.67.08,1.99.36,4.1.88,6.24.82,3.45,2.26,6.98,4.53,10.18h.01c.81,1.16,1.72,2.26,2.77,3.29h.01c4.99,5.06,12.71,8.68,24.23,8.79,5.37.05,11.57-.65,18.7-2.32,37.89-8.92,43.66,39.18,22.69,72.02Z" style="fill: #3f3d67;"/>
          <g>
            <path d="m151.19,146.39s-.09-.02-.13-.02c-4.25,11.75-13.01,21.8-24.06,27.61-5.27,2.77-11.08,4.65-15.69,8.42-5.61,4.6-8.86,11.7-9.62,18.92-1.82,17.37,7.28,30.93,23.6,36.18,19.92,6.41,41.11,7.99,62.02,7.34,5.13-29.54,10.01-59.12,14.64-88.75-16.92-3.23-33.84-6.47-50.77-9.7Z" style="fill: #36364f; opacity: .5;"/>
            <path d="m242.15,146.49l.13-.02c4.25,11.75,13.01,21.8,24.06,27.61,5.27,2.77,11.08,4.65,15.69,8.42,5.61,4.6,8.86,11.7,9.62,18.92,1.82,17.37-7.28,30.93-23.6,36.18-19.92,6.41-41.11,7.99-62.02,7.34-5.13-29.54-10.01-59.12-14.64-88.75,16.92-3.23,33.84-6.47,50.77-9.7Z" style="fill: #36364f; opacity: .5;"/>
          </g>
        </g>
        <g>
          <g>
            <path d="m296.5,252.36l-18.8,5.19-1.83.51-.98.25s-4.97,1.38-4.97,1.38c-.01,0-6.8,1.88-6.8,1.88l-.28.07s-.24.06-.24.06l-2.51.71-5.82,1.61-70.76,19.5-22.67-8.04-13.21-4.67-3.7-1.36-44-16.14s1.01-1.56,3.29-4.08c2.12-2.33,5.33-5.5,9.82-8.98,6.45-4.99,15.53-10.67,27.82-15.58,1.53-.6,3.12-1.2,4.75-1.78,2.29-.82,4.67-1.61,7.17-2.36,2.58-.78,5.29-1.52,8.09-2.19,1.5-.38,3.02-.72,4.57-1.06,4.33-.93,7.23-2.96,9.21-5.67,4.59-6.23,4.33-16.04,5.63-23.82,0-.01,1.97-11.72,1.97-11.72l29.59-.6,2.73,12.65.42,1.94.61,2.83c.19.82.35,1.66.5,2.51h0c.97,5.45,1.55,11.46,4.94,15.88,4.65,6.08,12.94,5.12,19.72,6.46,4.54.91,9.76,2.23,15.27,4.22,4.04,1.46,8.23,3.27,12.44,5.52,3.85,2.06,7.69,4.48,11.43,7.34,1.78,1.37,3.54,2.84,5.26,4.42.55.5,1.1,1.02,1.64,1.54.43.42.85.84,1.28,1.29.07.06.14.14.2.21.47.47.92.95,1.36,1.43.42.45.84.92,1.24,1.39.23.25.45.52.69.79.38.43.76.89,1.13,1.35.46.57.94,1.16,1.4,1.77.05.07.12.15.17.23.21.28.43.57.64.87.23.31.45.61.66.94.33.43.63.88.94,1.32Z" style="fill: #f9b7c8;"/>
            <path d="m214.99,190.05l-4.12-3.39-30.59,1.12c-1.31,7.79-1.04,17.59-5.63,23.82,18.24.49,41.46-16.2,41.46-16.2h0s-1.11-5.35-1.11-5.35Z" style="fill: #de4e6a; opacity: .3;"/>
          </g>
          <path d="m296.5,252.36l-18.8,5.19-1.83.51-.98.25s-4.97,1.38-4.97,1.38c-.01,0-6.8,1.88-6.8,1.88l-.28.07s-.24.06-.24.06l-2.51.71-5.82,1.61-70.76,19.5-22.67-8.04-13.21-4.67-3.7-1.36-44-16.14s1.01-1.56,3.29-4.08c.26.01.53.02.8.02,9.51,0,9.51-7.98,19-7.98s9.51,7.98,19,7.98,9.51-7.98,19.01-7.98,9.49,7.98,19,7.98,9.49-7.98,19-7.98,9.49,7.98,19,7.98,9.49-7.98,19-7.98,9.51,7.98,19,7.98,9.51-7.98,19.01-7.98,9.49,7.98,19,7.98c.07,0,.15,0,.22-.01.21.28.43.57.64.87.23.31.45.61.66.94.33.43.63.88.94,1.32Z" style="fill: #fff;"/>
        </g>
        <path d="m240.44,165.3c-.45-.45-.88-.97-1.26-1.54.45.49.88,1,1.26,1.54Z" style="fill: #de4e6a; opacity: .3;"/>
        <g>
          <g>
            <g>
              <path d="m242.09,134.99c0,.6,0,1.22-.02,1.85.01.06.01.14,0,.21,0,.35-.01.72-.02,1.08,0,.16,0,.33-.01.5-.12,4.56-.45,8.77-.98,12.66-.26,2-.58,3.92-.95,5.76h0c-.41,2.09-.89,4.05-1.41,5.92-.06.23-.14.46-.2.7-.02.12-.06.24-.11.36-.35,1.19-.72,2.34-1.12,3.46-1.88,5.26-4.21,9.61-6.85,13.2-2.04,2.77-4.26,5.09-6.6,7.01-.36.3-.72.58-1.09.85-.12.09-.24.19-.37.28-2.19,1.62-4.47,2.94-6.76,3.99-.01.01-.02.01-.03.01-6.89,3.14-13.94,3.91-19.58,3.83-4.81-.1-10.63-.85-16.45-3.18-2.35-.94-4.71-2.14-6.99-3.66-.36-.24-.73-.49-1.09-.75-.6-.42-1.18-.86-1.76-1.34-2.55-2.08-4.98-4.61-7.15-7.69-2.71-3.79-5.05-8.41-6.85-14.03-.14-.41-.26-.83-.39-1.26-.01-.04-.02-.08-.04-.13-.07-.24-.15-.5-.21-.75-.93-3.26-1.67-6.85-2.2-10.78h0c-.08-.61-.16-1.21-.23-1.84-.35-3.06-.58-6.32-.68-9.79-.03-1.22-.05-2.47-.04-3.73v-1.06s.01-.09.01-.14c.01-.69.02-1.35.04-2.05,0-.32.01-.62.02-.94.03-1,.07-1.99.13-2.98.22-4.42.66-8.71,1.36-12.81.45-2.66,1.02-5.24,1.72-7.72h84.15c.65,2.47,1.18,5.05,1.59,7.71.34,2.17.6,4.41.79,6.69.18,2.18.31,4.39.36,6.65.02,1.3.02,2.58.02,3.9Z" style="fill: #f9b7c8;"/>
              <path d="m201.68,188.11c0,1.14-2.3,2.07-5.15,2.07s-5.15-.93-5.15-2.07,2.3-2.07,5.15-2.07,5.15.93,5.15,2.07Z" style="fill: #de4e6a; opacity: .3;"/>
              <g>
                <path d="m228.18,159.99c3.95,0,7.52,1.52,10.2,4.02-.35,1.19-.72,2.34-1.12,3.46-3.32,9.34-8.1,15.79-13.45,20.2-.49.4-.96.77-1.46,1.14-5.39-2.27-9.18-7.61-9.18-13.82,0-8.28,6.72-15,15-15Z" style="fill: #de4e6a; opacity: .3;"/>
                <path d="m181.25,174.99c0,6.45-4.07,11.94-9.79,14.06-.6-.42-1.18-.87-1.76-1.34-5.7-4.63-10.75-11.53-14-21.72-.14-.41-.26-.83-.39-1.26,2.73-2.92,6.63-4.75,10.94-4.75,8.28,0,15,6.72,15,15Z" style="fill: #de4e6a; opacity: .3;"/>
              </g>
            </g>
            <g>
              <g>
                <path d="m207.94,177.82s-10.26,9.03-21.91.71" style="fill: none; stroke: #de4e6a; stroke-miterlimit: 10; stroke-width: 1.08px;"/>
                <polyline points="196.99 152.68 193.1 169.42 199.03 169.42" style="fill: none; stroke: #3f3d67; stroke-miterlimit: 10; stroke-width: 1.08px;"/>
              </g>
              <g>
                <g>
                  <path d="m167.55,143.93l18.15-4.5c.37-.09.46-.57.15-.79-1.53-1.04-5.28-2.95-9.93-.72-5.09,2.44-7.58,4.21-8.77,5.25-.35.3-.05.86.4.75Z" style="fill: #3f3d67;"/>
                  <path d="m225.1,143.93l-18.15-4.5c-.37-.09-.46-.57-.15-.79,1.53-1.04,5.28-2.95,9.93-.72,5.09,2.44,7.58,4.21,8.77,5.25.35.3.05.86-.4.75Z" style="fill: #3f3d67;"/>
                </g>
                <g>
                  <path d="m206.16,149.88c.9,1.42,1.99,2.68,3.22,3.77,1.27,1.04,2.68,1.95,4.38,2.35,1.66.44,3.69.43,5.57-.69,1.91-1.04,3.32-2.98,4.28-4.86l-.14-.13c-1.68,1.16-3.07,2.41-4.6,2.94-1.47.6-2.98,1.07-4.53.93-1.53-.13-2.97-.76-4.3-1.55-1.35-.78-2.61-1.76-3.72-2.94l-.17.17Z" style="fill: #3f3d67;"/>
                  <path d="m185.8,149.57c-.9,1.42-1.99,2.68-3.22,3.77-1.27,1.04-2.68,1.95-4.38,2.35-1.66.44-3.69.43-5.57-.69-1.91-1.04-3.32-2.98-4.28-4.86l.14-.13c1.68,1.16,3.07,2.41,4.6,2.94,1.47.6,2.98,1.07,4.53.93,1.53-.13,2.97-.76,4.3-1.55,1.35-.78,2.61-1.76,3.72-2.94l.17.17Z" style="fill: #3f3d67;"/>
                </g>
              </g>
            </g>
          </g>
          <g>
            <g>
              <path d="m240.44,165.3c-.45-.45-.88-.97-1.26-1.54-.25-.36-.49-.75-.7-1.16-.45-.83-.84-1.77-1.16-2.82l.71-11.38c.32-5.06,1.85-8.83,4.01-11.33,6.61-7.68,19.1-3.58,20.23,10.86,1.29,16.35-14.21,25.24-21.84,17.38Z" style="fill: #f9b7c8;"/>
              <path d="m255.05,145.26s-9.09.58-10.42,10.94l9.16-1.71" style="fill: none; stroke: #3f3d67; stroke-miterlimit: 10; stroke-width: 1.08px;"/>
            </g>
            <g>
              <path d="m156.27,148.4c-1.28-20.6-22.74-19.62-24.25-.48-1.51,19.14,19.97,28.04,24.95,11.86l-.7-11.38Z" style="fill: #f9b7c8;"/>
              <path d="m139.25,145.26s9.09.58,10.42,10.94l-9.16-1.71" style="fill: none; stroke: #3f3d67; stroke-miterlimit: 10; stroke-width: 1.08px;"/>
            </g>
          </g>
          <g>
            <path d="m244.63,113.58l-.5,4.49-2.07,18.76-.02.23c-.16,0-.32,0-.47-.01-.95,0-1.89-.01-2.83-.05-1.62-.05-3.23-.16-4.81-.3-27.26-2.43-48.65-16.29-55.76-21.45-1.67-1.21-2.55-1.94-2.55-1.94-.28.79-.57,1.55-.85,2.29-5.09,12.85-11.56,17.88-16.35,19.8-.98.4-1.89.66-2.7.83-1.97.43-3.37.34-3.81.28-.09-.01-.15-.02-.15-.02l-.49-2.3-1.6-7.69,1.13-8.48,1.07-8h91.16l1.6,3.54Z" style="fill: #3f3d67;"/>
            <g>
              <path d="m156.1,129.57s23.01,49.8-8.97,74.43c0,0-20.05,15.68-13.67-7.03,6.38-22.71,25.72-20.43,17.31-62.25l5.34-5.14Z" style="fill: #3f3d67;"/>
              <path d="m236.68,129.57s-23.01,49.8,8.97,74.43c0,0,20.05,15.68,13.67-7.03-6.38-22.71-25.72-20.43-17.31-62.25l-5.34-5.14Z" style="fill: #3f3d67;"/>
            </g>
          </g>
        </g>
      </g>
      <g>
        <g>
          <g>
            <path d="m173.31,318.69c1.32,1.18,2.95,2.01,4.09,3.35,1.58,1.87,1.99,4.42,2.87,6.7,1.38,3.57,4.09,6.6,7.46,8.42.44.24.9.46,1.36.65,2.74,1.15,4,1.49,6.82,2.43.84.28,1.83.63,2.85,1.05.59.25,1.19.52,1.77.83.01-.13.03-.26.04-.39.05-.53.09-1.08.11-1.64-.59-.66-1.19-1.3-1.8-1.95-1.88-2.01-3.7-4.06-4.77-6.74-.46-1.14-.76-2.36-1.02-3.6-.78-3.76-1.11-7.7-3.81-10.29-1.94-1.85-4.68-2.52-7.17-3.51-5.45-2.17-10.14-6.18-13.13-11.23,0,.3,0,.59-.01.89-.06,5.45.34,11.42,4.35,15.01Z" style="fill: #1591b7;"/>
            <path d="m228.62,318.69c-1.32,1.18-2.95,2.01-4.09,3.35-1.58,1.87-1.99,4.42-2.87,6.7-1.38,3.57-4.09,6.6-7.46,8.42-.44.24-.9.46-1.36.65-2.74,1.15-4,1.49-6.82,2.43-.84.28-1.83.63-2.85,1.05-.59.25-1.19.52-1.77.83-.01-.13-.03-.26-.04-.39-.05-.53-.09-1.08-.11-1.64.59-.66,1.2-1.3,1.8-1.95,1.88-2.01,3.7-4.06,4.77-6.74.46-1.14.76-2.36,1.02-3.6.78-3.76,1.11-7.7,3.81-10.29,1.94-1.85,4.68-2.52,7.17-3.51,5.45-2.17,10.14-6.18,13.13-11.23,0,.3,0,.59.01.89.06,5.45-.34,11.42-4.35,15.01Z" style="fill: #1591b7;"/>
            <rect x="199.52" y="310.22" width="2.92" height="33.7" style="fill: #1591b7;"/>
          </g>
          <g>
            <g>
              <g>
                <path d="m201.31,300.01c-1.36-.58-25.45-10.72-26.53-4.35h0s0,0,0,0c0,0,0,0,0,0h0c-1.01,6.39,25.06,4.47,26.53,4.36h.07s-.01,0-.03,0c.02,0,.03,0,.03,0h-.07Z" style="fill: #c33e5d;"/>
                <path d="m199.62,299.75c1.36.58,25.45,10.72,26.53,4.35h0s0,0,0,0c0,0,0,0,0,0h0c1.01-6.39-25.06-4.47-26.53-4.36h-.07s.01,0,.03,0c-.02,0-.03,0-.03,0h.07Z" style="fill: #c33e5d;"/>
              </g>
              <g>
                <path d="m200.34,300.73c.58-1.36,10.72-25.45,4.35-26.53h0s0,0,0,0c0,0,0,0,0,0h0c-6.39-1.01-4.47,25.06-4.35,26.53v.07s0-.01,0-.03c0,.02,0,.03,0,.03v-.07Z" style="fill: #c33e5d;"/>
                <path d="m200.6,299.04c-.58,1.36-10.72,25.45-4.35,26.53h0s0,0,0,0c0,0,0,0,0,0h0c6.39,1.01,4.47-25.06,4.35-26.53v-.07s0,.01,0,.03c0-.02,0-.03,0-.03v.07Z" style="fill: #c33e5d;"/>
              </g>
              <g>
                <path d="m200.97,300.57c-.55-1.37-10.41-25.58-15.68-21.84h0s0,0,0,0c0,0,0,0,0,0h0c-5.23,3.81,14.56,20.88,15.68,21.84l.04.05s0-.01-.01-.03c.02.01.03.02.03.02l-.04-.05Z" style="fill: #c33e5d;"/>
                <path d="m199.96,299.2c.55,1.37,10.41,25.58,15.68,21.84h0s0,0,0,0c0,0,0,0,0,0h0c5.23-3.81-14.56-20.88-15.68-21.84l-.04-.05s0,.01.01.03c-.02-.01-.03-.02-.03-.02l.04.05Z" style="fill: #c33e5d;"/>
              </g>
              <g>
                <path d="m199.78,300.39c1.37-.55,25.58-10.41,21.84-15.68h0s0,0,0,0c0,0,0,0,0,0h0c-3.8-5.23-20.88,14.56-21.84,15.68l-.05.04s.01,0,.03-.01c-.01.02-.02.03-.02.03l.05-.04Z" style="fill: #c33e5d;"/>
                <path d="m201.16,299.38c-1.37.55-25.58,10.41-21.84,15.68h0s0,0,0,0c0,0,0,0,0,0h0c3.8,5.23,20.88-14.56,21.84-15.68l.05-.04s-.01,0-.03.01c.01-.02.02-.03.02-.03l-.05.04Z" style="fill: #c33e5d;"/>
              </g>
              <g>
                <path d="m200.66,300.72c.03-1.48.47-27.61-5.85-26.24h0s0,0,0,0c0,0,0,0,0,0h0c-6.3,1.45,5.2,24.92,5.85,26.24v.06s.01-.01.02-.03c0,.02.02.03.02.03v-.06Z" style="fill: #ff83a4;"/>
                <path d="m200.28,299.05c-.03,1.48-.47,27.61,5.85,26.24h0s0,0,0,0c0,0,0,0,0,0h0c6.3-1.45-5.2-24.92-5.85-26.24v-.06s-.01.01-.02.03c0-.02-.02-.03-.02-.03v.06Z" style="fill: #ff83a4;"/>
              </g>
              <g>
                <path d="m200.02,300.61c.44-1.41,8.38-26.31,13.93-23h0s0,0,0,0c0,0,0,0,0,0h0c5.51,3.38-12.88,21.95-13.93,23l-.03.06s0-.01,0-.03c-.01.01-.02.02-.02.02l.03-.06Z" style="fill: #ff83a4;"/>
                <path d="m200.92,299.16c-.44,1.41-8.38,26.31-13.93,23h0s0,0,0,0c0,0,0,0,0,0h0c-5.51-3.38,12.88-21.95,13.93-23l.03-.06s0,.01-.01.03c.01-.01.02-.02.02-.02l-.03.06Z" style="fill: #ff83a4;"/>
              </g>
              <g>
                <path d="m201.2,300.32c-1.05-1.04-19.64-19.42-23.01-13.9h0s0,0,0,0c0,0,0,0,0,0h0c-3.31,5.56,21.6,13.46,23.01,13.91l.06.03s0,0-.02-.02c.02,0,.03.01.03.01l-.06-.03Z" style="fill: #ff83a4;"/>
                <path d="m199.73,299.45c1.05,1.04,19.64,19.42,23.01,13.9h0s0,0,0,0c0,0,0,0,0,0h0c3.31-5.56-21.6-13.46-23.01-13.91l-.06-.03s0,0,.02.02c-.02,0-.03-.01-.03-.01l.06.03Z" style="fill: #ff83a4;"/>
              </g>
              <g>
                <path d="m201.3,299.67c-1.48,0-27.61.16-26.1,6.44h0s0,0,0,0c0,0,0,0,0,0h0c1.59,6.27,24.79-5.75,26.1-6.44l.06-.02s-.01,0-.03,0c.02,0,.03-.02.03-.02l-.06.02Z" style="fill: #ff83a4;"/>
                <path d="m199.64,300.1c1.48,0,27.61-.16,26.1-6.44h0s0,0,0,0c0,0,0,0,0,0h0c-1.59-6.27-24.79,5.75-26.1,6.44l-.06.02s.01,0,.03,0c-.02,0-.03.02-.03.02l.06-.02Z" style="fill: #ff83a4;"/>
              </g>
            </g>
            <path d="m204.16,300.24c-.33,2.02-2.23,3.38-4.25,3.05-2.02-.33-3.38-2.23-3.05-4.25.33-2.02,2.23-3.38,4.25-3.05s3.38,2.23,3.05,4.25Z" style="fill: #fff;"/>
          </g>
        </g>
        <ellipse cx="200.97" cy="351.27" rx="21" ry="10.11" style="fill: #f9b7c8;"/>
        <g>
          <rect x="173.81" y="346.49" width="54.33" height="9.56" style="fill: #3f3d67;"/>
          <polygon points="203.05 353.9 203.05 353.89 177.61 353.89 180.62 392.92 203.05 392.92 203.05 392.92 221.33 392.92 223.53 364.41 223.84 360.46 224.2 355.8 224.34 353.9 203.05 353.9" style="fill: #3f3d67;"/>
          <polygon points="223.84 361.34 223.53 365.81 178.36 365.81 178.02 361.34 223.84 361.34" style="fill: #575791;"/>
          <polygon points="224.2 356.06 208.75 361.34 203.05 363.29 198.9 364.71 195.69 365.81 178.81 371.58 178.36 365.81 178.02 361.34 177.61 356.06 224.2 356.06" style="fill: #36364f; opacity: .5;"/>
        </g>
      </g>
      <g>
        <g>
          <g>
            <path d="m210.19,369.43s6.19-3.6,10.74-8.99c4.54-5.4,8.03.72,3.96,5.57,0,0,2.83-2,5.51-5.76,2.68-3.76,6.74-.8,5.98,2.39,0,0,2-2.33,4.56-.69,2.56,1.65,1.3,5.49.68,6.74,0,0,6.96,1.49-.57,11.4-7.53,9.91-19.47,19.7-40.72,20.68-14.62.67-20.34-7.9-20.25-14.06.17-11.19,14.59-21.02,30.1-17.29Z" style="fill: #f9b7c8;"/>
            <path d="m224.9,366c-6.87,8.01-11.11,9.93-11.11,9.93" style="fill: none; stroke: #de4e6a; stroke-miterlimit: 10; stroke-width: 1.05px;"/>
            <path d="m236.39,362.63c-9.61,13.96-16.71,17.23-16.71,17.23" style="fill: none; stroke: #de4e6a; stroke-miterlimit: 10; stroke-width: 1.05px;"/>
            <path d="m241.63,368.68c-5.35,9.93-16.34,16.81-16.34,16.81" style="fill: none; stroke: #de4e6a; stroke-miterlimit: 10; stroke-width: 1.05px;"/>
          </g>
          <path d="m192.75,375.11l-1.29,1.94-2.59,3.9-1.45,11.28-.71,5.55-.02.14s-2.06-.35-6.1-.91h-.02c-5.31-.72-14.02-1.84-25.91-3.04-1.7-.15-3.46-.34-5.29-.51-3.51-.32-7.26-.67-11.25-.99-8.13-.66-17.23-1.33-27.27-1.91-.78-.04-1.55-.09-2.32-.13h-.02c-1.16-.07-2.32-.13-3.5-.18-.54-.04-1.06-.06-1.61-.1h0c-.43-.01-.88-.04-1.32-.06-.28-.01-.57-.03-.86-.04-1.72-.09-3.46-.17-5.25-.26-.39-.01-.78-.04-1.18-.05-.63-.02-1.24-.05-1.88-.09-4.55-.21-8.7-2.1-11.76-5.08-2.64-2.56-4.48-5.93-5.07-9.73,0-.01-.01-.02,0-.03-.09-.53-.15-1.07-.18-1.61-.16-2.56.09-5.19.97-7.61.28-.77.64-1.52,1.06-2.25.76-1.31,1.75-2.53,3.04-3.62,2.58-2.21,6.36-3.91,11.69-4.77.58-.11,1.2-.18,1.84-.26.58-.08,1.19-.13,1.82-.17,4.44-.37,9.81-.22,16.23.58,1.01.12,2.03.26,3.09.42.12.01.24.04.35.05.7.11,1.39.21,2.08.32.03,0,.06,0,.1.01,2.63.41,5.17.83,7.64,1.29.08.01.1.02.1.02.68.12,1.35.24,2.02.36.92.17,1.83.36,2.71.53,5.76,1.11,11.07,2.3,15.98,3.51h.01c1.41.34,2.77.68,4.09,1.03,3.28.83,6.33,1.68,9.18,2.5.38.1.74.22,1.11.31,1.24.38,2.46.72,3.64,1.08,2.3.69,4.45,1.37,6.46,2,6.18,1.96,10.91,3.56,14.18,4.42.7.18,1.34.36,1.92.52.18.05.37.1.54.14,1.38.39,2.46.71,3.25.96h.01c1.22.36,1.77.55,1.77.55Z" style="fill: #f9b7c8;"/>
        </g>
        <path d="m94.46,354.67s35.98-.85,66.49,10.77" style="fill: none; stroke: #de4e6a; stroke-miterlimit: 10; stroke-width: 1.05px;"/>
      </g>
      <path d="m103.51,382.6c0,2.64-.51,5.16-1.45,7.47-.28-.01-.57-.03-.86-.04-1.72-.09-3.46-.17-5.25-.26-.39-.01-.78-.04-1.18-.05-.63-.02-1.24-.05-1.88-.09-4.55-.21-8.7-2.1-11.76-5.08-2.64-2.56-4.48-5.93-5.07-9.73,0-.01-.01-.02,0-.03-.79-3.22-1.35-6.59-1.7-10.08,1.12-.57,2.3-1.05,3.55-1.39,1.75-.51,3.61-.78,5.53-.78,7.5,0,14.04,4.12,17.48,10.22,1.65,2.91,2.59,6.27,2.59,9.85Z" style="fill: #de4e6a; opacity: .3;"/>
      <g>
        <g>
          <g>
            <g>
              <path d="m217.9,282.11s-6.68-2.59-13.73-2.77c-7.05-.18-4.45-6.72,1.87-6.57,0,0-3.33-.96-7.94-.71-4.61.26-4.83-4.76-1.87-6.17,0,0-3.07-.11-3.39-3.14-.31-3.03,3.48-4.44,4.84-4.74,0,0-3.18-6.37,9.26-6.68,12.45-.31,27.55,2.9,41.58,18.89,9.66,11,6.53,20.82,1.66,24.59-8.85,6.85-25.53,1.73-32.3-12.72Z" style="fill: #f9b7c8;"/>
              <path d="m206.05,272.77c10.54.36,14.69,2.48,14.69,2.48" style="fill: none; stroke: #ca3763; stroke-miterlimit: 10; stroke-width: .68px;"/>
              <path d="m196.24,265.89c16.91-1.21,23.9,2.3,23.9,2.3" style="fill: none; stroke: #ca3763; stroke-miterlimit: 10; stroke-width: .68px;"/>
              <path d="m197.69,258.02c11.1-2.02,23.33,2.26,23.33,2.26" style="fill: none; stroke: #ca3763; stroke-miterlimit: 10; stroke-width: .68px;"/>
            </g>
            <path d="m319.75,366.02c-.15.76-.36,1.46-.62,2.14-.59,1.63-1.47,3.05-2.54,4.28-1.69,1.96-3.86,3.44-6.18,4.53-4.04,1.92-8.46,2.13-12.5.9-3.3-.99-6.33-2.96-8.64-5.73-.54-.66-1.05-1.36-1.5-2.11-.34-.54-.65-1.06-.98-1.6-.21-.35-.41-.68-.62-1.02-.94-1.51-1.86-2.99-2.77-4.46-.38-.63-.77-1.24-1.16-1.85h.01c-.29-.48-.57-.93-.86-1.38-.63-.99-1.24-1.98-1.86-2.97h0c-.42-.67-.83-1.33-1.24-1.98-5.36-8.52-10.36-16.16-14.86-22.96-2.22-3.33-4.32-6.45-6.31-9.37-1.03-1.5-2.04-2.97-3.01-4.38-6.31-9.13-11.24-15.9-14.46-20.26-.25-.33-.49-.65-.71-.95l-.02-.02c-2.43-3.25-3.73-4.9-3.73-4.9l4.62-3.38,9.17-6.72,2.16-4.16,1.07-2.05s.1.09.29.27c.22.19.57.53,1.06,1.01h0c.68.66,1.6,1.58,2.8,2.8.43.43.89.91,1.38,1.44,1.15,1.2,2.61,2.62,4.37,4.27,0,0,.1.1.28.27,1.37,1.31,2.92,2.76,4.63,4.38.48.43.95.9,1.45,1.36,1.52,1.45,3.16,3.01,4.89,4.68.88.86,1.77,1.77,2.7,2.67.27.28.54.55.81.82,2.1,2.1,4.31,4.37,6.63,6.83.94.98,1.9,2.01,2.89,3.07v.02c3.42,3.71,7.04,7.77,10.79,12.28.58.7,1.18,1.41,1.77,2.12.43.53.86,1.06,1.3,1.6,0,0,.02.01.06.08,2.02,2.48,4.08,5.07,6.16,7.81.06.09.15.18.22.28,4.8,6.28,8.11,11.72,10.23,16.42.26.57.51,1.14.72,1.68.24.59.46,1.17.66,1.73.53,1.46.93,2.85,1.22,4.16.71,3.23.75,6.01.25,8.38Z" style="fill: #f9b7c8;"/>
          </g>
          <path d="m262.09,285.39s43.49,42.07,54.8,64.69" style="fill: none; stroke: #de4e6a; stroke-miterlimit: 10; stroke-width: 1.05px;"/>
        </g>
        <path d="m321.23,358.81c-.44,3.23-1.08,6.37-1.95,9.38l-.15-.03c-.59,1.63-1.47,3.05-2.54,4.28-1.69,1.96-3.86,3.44-6.18,4.53-4.04,1.92-8.46,2.13-12.5.9-3.3-.99-6.33-2.96-8.64-5.73.43-3.22,1.63-6.21,3.41-8.75,3.63-5.21,9.66-8.62,16.49-8.62,3.78,0,7.32,1.05,10.33,2.86.59.36,1.18.75,1.73,1.17Z" style="fill: #de4e6a; opacity: .3;"/>
      </g>
      <g>
        <path d="m69.63,218.27c-21.45-32.85-15.84-81.61,22.3-72.62,6.67,1.57,12.52,2.28,17.64,2.31-10.33.31-56.11,5.37-39.94,70.31Z" style="fill: #fff; opacity: .05;"/>
        <path d="m325.27,217.67c16.98-71.5-42.33-68.82-42.33-68.82l.94-.88c5.37.05,11.57-.65,18.7-2.32,37.89-8.92,43.66,39.18,22.69,72.02Z" style="fill: #fff; opacity: .05;"/>
      </g>
    </g>
    <g>
      <path d="m280.12,94.09c-4.07.05-5.23,3.05-5.23,3.05,0,0-1.23-2.98-5.3-2.93s-8.19,6.56,5.47,17.66c13.4-11.41,9.14-17.83,5.07-17.78Z" style="fill: #ff83a4;"/>
      <path d="m121.94,168.74c-4.07.05-5.23,3.05-5.23,3.05,0,0-1.23-2.98-5.3-2.93-4.07.05-8.19,6.56,5.47,17.66,13.4-11.41,9.14-17.83,5.07-17.78Z" style="fill: #ff83a4;"/>
      <path d="m283.52,190.86c-4.07.05-5.23,3.05-5.23,3.05,0,0-1.23-2.98-5.3-2.93s-8.19,6.56,5.47,17.66c13.4-11.41,9.14-17.83,5.07-17.78Z" style="fill: #ff83a4;"/>
      <path d="m160.14,249.08c-4.07.05-5.23,3.05-5.23,3.05,0,0-1.23-2.98-5.3-2.93-4.07.05-8.19,6.56,5.47,17.66,13.4-11.41,9.14-17.83,5.07-17.78Z" style="fill: #ff83a4;"/>
    </g>
  </g>
</svg>