<?xml version="1.0" encoding="utf-8"?>
<!-- Generator: Adobe Illustrator 27.6.1, SVG Export Plug-In . SVG Version: 6.00 Build 0)  -->
<svg version="1.1" id="Layer_1" xmlns="http://www.w3.org/2000/svg" xmlns:xlink="http://www.w3.org/1999/xlink" x="0px" y="0px"
	 viewBox="0 0 750 500" style="enable-background:new 0 0 750 500;" xml:space="preserve">
<style type="text/css">
	.st0{fill:#38466D;}
	.st1{fill:#293756;}
	.st2{fill:#4B5C82;}
	.st3{opacity:0.29;fill:#4B5C82;enable-background:new    ;}
	.st4{fill:#2B3959;}
	.st5{fill:#96210A;}
	.st6{fill:#96360A;}
	.st7{fill:#AC4210;}
	.st8{fill:#BB531F;}
	.st9{fill:#D07031;}
	.st10{fill:#F9C19C;}
	.st11{fill:#233D68;}
	.st12{fill:#FFF1D1;}
	.st13{fill:#FABB8F;}
	.st14{fill:#2D4F75;}
	.st15{fill:#57403E;}
	.st16{fill:#FBA278;}
	.st17{fill:#5E403E;}
	.st18{fill:#55403E;}
	.st19{fill:none;stroke:#DB7A53;stroke-linecap:round;stroke-linejoin:round;stroke-miterlimit:10;}
	.st20{fill:#FDFEFF;}
	.st21{fill:#2C2A3F;}
	.st22{fill:#5C403E;}
	.st23{fill:#453248;}
	.st24{fill:#ED445F;}
	.st25{fill:#CF294A;}
	
		.st26{opacity:0.15;clip-path:url(#SVGID_00000113328882877446867950000011169738976135373499_);fill:#1D2A42;enable-background:new    ;}
	
		.st27{opacity:0.15;clip-path:url(#SVGID_00000101067910079394640980000014384588342072906386_);fill:#1D2A42;enable-background:new    ;}
	.st28{clip-path:url(#SVGID_00000180344469069811485180000005024024007171166906_);}
	.st29{fill:#1D2A42;}
</style>
<g id="BACKGROUND">
	<g>
		<rect class="st0" width="750" height="500"/>
		<g>
			<polygon class="st1" points="106.4,176.3 92.3,42.2 191.4,42.2 186.9,172.1 			"/>
			<polygon class="st2" points="116.2,157.8 106,60.6 177.7,60.6 174.5,154.7 			"/>
		</g>
		<polygon class="st3" points="750,0 0,0 0,165 133.9,333.1 618.9,336.7 750,141.9 		"/>
		<rect y="319.3" class="st4" width="750" height="180.7"/>
		<polygon class="st0" points="0,341.8 750,346.8 750,349.8 0,351.8 		"/>
		<polyline class="st0" points="750,384.5 750,374.5 0,379.5 0,382.5 		"/>
		<polygon class="st0" points="0,436.6 750,441.6 750,444.6 0,446.6 		"/>
	</g>
</g>
<g id="OBJECTS">
	<g>
		<g>
			<path class="st0" d="M201.6,291.8h392c1.6-5.4,2.8-11.6,3.8-18.1c3.1-20.5-14.6-21.2-14.6-21.2s1.8-13.6,4.7-35
				c2.1-15.7-7-21-18.2-22.9c0.3-6.7-0.1-11.8-1.3-14.3c-2.1-4.3-9-5.4-18.1-5c-0.9-1.1-2.2-3.1-3.5-4c-0.1,0-0.1-0.1-0.2-0.1
				c0,0-0.1,0-0.1,0c-0.4-0.2-0.7-0.3-1.1-0.4c-0.1,0-0.2,0-0.2,0c-1.6-0.3-4.1-0.5-7-0.6c-0.1-0.7-0.3-1.1-0.4-1.2
				c-0.7-0.5-25.4,2.6-33.2,2.1c-1-0.2-2-0.3-3.1-0.4l0.6-2.5c0-0.1,0-0.1,0-0.2c8.2,1.6,16.9,1,24.3-4.3c7.3-5.2,12.1-14,15.6-24
				c0.8,0.2,1.6,0.2,2.4,0c2.7-0.6,5.3-3.2,6.2-6.7c0.7-2.6,0.3-5.6-0.9-7.6c2.2-5.4,3.8-11.3,4.8-17.3c2.1-13,1.3-26.6-1.4-39.4
				c-2-9.1-5.5-15.9-10.5-21.3c-2.5-3.8-5.2-7.4-8.2-10.5c-8.7-9.4-19.7-17.3-29.9-24.2c-8,3.6-13.6,14.8-14.4,26.4
				c-9.3,6.4-16.8,17.1-21.9,29.6c-1.6-5.1-3.6-9.9-6.1-14.5c-0.3-0.6-0.7-1.2-1.1-1.9c3.7-0.3,7.4-3.9,8.8-8.8
				c1.9-6.7,0.5-14.8-2.6-20.8c-3.1-6.2-7.6-10.7-12.1-14.9c-2.3-2.1-4.8-4.3-7.5-4.6c-4.2-0.5-8,3.8-9.4,9.3
				c-1.3,5.2-0.8,11.2,0.7,16.5c-11.2-6.9-23.9-8.9-35.4-4.6c-22.3,8.3-34.4,40-34.3,70.2c-1.5,1.5-2.4,4-2.4,6.6
				c0.1,3.2,1.5,6.4,3.5,8.4c0.1,0.7,0.2,1.3,0.3,1.9c-0.3,3.9-1.2,7.6-3.5,10.7c-3.2,4.5-8.4,6.5-13.5,5.4
				c3.7,5.4,9.6,8.2,14.6,6.8c3.1-0.9,5.3-3.1,6.9-6c5.5,14.1,14.4,26,25.1,32.9c3.7,2.4,7.5,4.1,11.4,5.3l0,0.5
				c-0.3,0-0.6,0.1-0.9,0.1c-1.8,0.3-3.9,0.8-5.7-0.3c-1.8-1.1-3.8-1.2-5.7-0.3c-1.2,0.5-2.3,1.5-3.1,2.7c-17.7-2.6-52.3,7.7-70.9,7
				c-23.4-0.9-77.4-21.7-83.8-8.5c-1.2,2.4-1.3,7.6-0.7,14.3l-6.2-0.2c-18.3-0.7-40.3-0.9-35.1,23.2c4.9,23.1,8.1,37.7,8.1,37.7
				s-20.2-0.3-15.1,21.9C194.6,274.9,197.5,284.6,201.6,291.8z M443.9,162.6c7.1-4.3,13-10.8,17.5-18.6c1.8,2.2,3.9,3.7,6.4,4.4
				c-2.2-1.7-3.8-4.1-4.9-7c1.2-2.3,2.2-4.7,3.2-7.2c1,4.2,2.5,8.1,4.4,11.7c5,9.4,12.9,15.5,21.3,19l-1.4,6
				c-1.1,0.1-2.7,0.3-4.5,0.6c-5.5,1-34.3-3.5-35-2.9c-0.1,0.1-0.3,0.7-0.4,1.5c-2.1-0.1-3.9-0.1-5.2,0.1c-1.4-1.5-4.4-2-5.9-2.4
				c-1.5-0.4-2.9-0.8-4.3-1.2C438,165.6,441,164.3,443.9,162.6z M400.2,169.2c0.3-0.1,0.6,0,0.8,0.2c-0.7,0.1-1.3,0.3-2,0.4
				c-0.1,0-0.3-0.1-0.4-0.1C399.1,169.5,399.7,169.3,400.2,169.2z"/>
		</g>
		<g>
			<g>
				<path class="st5" d="M209.4,333.2c0,0,11.3,33.9,16.9,35.3c5.6,1.4,6.6-35.3,6.6-35.3"/>
				<path class="st5" d="M552.8,333.2c0,0-11.3,33.9-16.9,35.3s-6.6-35.3-6.6-35.3"/>
				<g>
					<path class="st6" d="M577.3,276.5c0,0,0-12.9,0-32.7s-21.2-20.3-38.8-20.3H230.3c-17.6,0-38.8,0.5-38.8,20.3s0,32.7,0,32.7
						s-20.4,0.2-20.4,20.4c0,20.3,2.8,38.2,19.7,38.2c16.9,0,72,0,72,0H506c0,0,55.1,0,72,0s19.7-18,19.7-38.2
						C597.7,276.7,577.3,276.5,577.3,276.5z"/>
					<path class="st7" d="M553.9,289.3c-6-2.2,20.6-14.6,32.2-10c11.7,4.6,11.1,17.7,9.2,17.4c-1.9-0.3-1.4-7.4-8-7.9
						c-6.6-0.5-11.1,8.9-4.2,10.8c6.8,1.9-5.1,12-11.8,2.6C565.8,294.5,560.3,291.7,553.9,289.3z"/>
					<path class="st7" d="M560.7,268.2c0,2.1,0.1,4.3,1,6.3c0.8,2,2.5,3.7,4.6,4c2.8,0.5,5.5-1.6,6.7-4.1c1.2-2.5,1.3-5.5,1.3-8.3
						c0.1-6.3,0.2-12.5,0.3-18.8c0.1-3.8,0.1-7.9-2-11.1c-1.7-2.7-6-5.5-9.3-4.6c-3.7,1-1.7,5.7-1.4,8.4
						C562.9,249.3,560.6,258.7,560.7,268.2z"/>
					<path class="st7" d="M216.1,289.3c6-2.2-20.6-14.6-32.2-10s-11.1,17.7-9.2,17.4c1.9-0.3,1.4-7.4,8-7.9
						c6.6-0.5,11.1,8.9,4.2,10.8c-6.8,1.9,5.1,12,11.8,2.6C204.2,294.5,209.7,291.7,216.1,289.3z"/>
					<path class="st7" d="M209.3,268.2c0,2.1-0.1,4.3-1,6.3c-0.8,2-2.5,3.7-4.6,4c-2.8,0.5-5.5-1.6-6.7-4.1
						c-1.2-2.5-1.3-5.5-1.3-8.3c-0.1-6.3-0.2-12.5-0.3-18.8c-0.1-3.8-0.1-7.9,2-11.1c1.7-2.7,6-5.5,9.3-4.6c3.7,1,1.7,5.7,1.4,8.4
						C207.1,249.3,209.3,258.7,209.3,268.2z"/>
					<g>
						<path class="st8" d="M301.4,216.2c-23.1,0-72.6-14.8-80.8-4.2c-8.2,10.6,0,84.7,0,84.7h161.6c0,0,8.2-74.1,0-84.7
							C374,201.4,324.5,216.2,301.4,216.2z"/>
						<path class="st7" d="M219.7,276.3c0.6,7.1,1.2,13.8,1.8,19.4h159.8c0.7-6.8,1.5-15.2,2.2-24L219.7,276.3z"/>
						<path class="st8" d="M551.2,212c-8.2-10.6-57.7,4.2-80.8,4.2s-72.6-14.8-80.8-4.2c-8.2,10.6,0,84.7,0,84.7h161.6
							C551.2,296.7,559.4,222.6,551.2,212z"/>
						<path class="st7" d="M388.3,271.5c0.7,8.9,1.4,17.4,2.2,24.2h159.8c0.9-8,1.8-18.2,2.5-28.8L388.3,271.5z"/>
					</g>
					<path class="st5" d="M567.4,314.7c0-12.3-2.7-20.2-28.7-20.2H234.3c-26,0-28.7,7.8-28.7,20.2c0,13.6,10.6,16.3,20.4,16.8l0,0.1
						h321.1l0-0.1C556.7,331,567.4,328.2,567.4,314.7z"/>
					<path class="st9" d="M567.4,309c0-11.3-2.7-18.5-28.7-18.5H234.3c-26,0-28.7,7.2-28.7,18.5c0,12.4,10.6,14.9,20.4,15.4l0,0.1
						h321.1l0-0.1C556.7,323.9,567.4,321.4,567.4,309z"/>
					<path class="st8" d="M565.9,299.5c-2.6-5.7-9.5-9-27.2-9H234.3c-17.7,0-24.6,3.3-27.2,9H565.9z"/>
					<path class="st9" d="M229.4,234.4c-3.2,0-5.8-2.6-5.9-5.8c-0.1-8.7,3.2-13,7.1-14.9c4.7-2.4,60.2,8.9,68.7,8
						s70.8-12.4,76.6-8.3c5.8,4.1,8.6,20.6,3.4,21C374.7,234.8,256.2,234.5,229.4,234.4z"/>
					<path class="st9" d="M399.3,234.4c-3.2,0-5.8-2.6-5.9-5.8c-0.1-8.7,3.2-13,7.1-14.9c4.7-2.4,60.2,8.9,68.7,8
						c8.5-0.9,70.8-12.4,76.6-8.3c5.8,4.1,8.6,20.6,3.4,21C544.6,234.8,426.1,234.5,399.3,234.4z"/>
				</g>
			</g>
			<g>
				<g>
					<g>
						<path class="st10" d="M527.2,205.1c-4.2-1.3-31.4-0.4-37.8,3.4s3.7,10.3,7.1,7.6c3.5-2.7,25-1.6,27.1-2.6
							C525.7,212.4,529.3,205.8,527.2,205.1z"/>
						<path class="st10" d="M420.4,207.9c4.2-1.3,31.4-0.4,37.8,3.4c6.4,3.8-3.7,10.3-7.1,7.6c-3.5-2.7-23.7-2.1-25.8-3.1
							C423.2,214.8,418.2,208.6,420.4,207.9z"/>
						<g>
							<path class="st10" d="M426.8,215.9c-1.5,0.9-7.9-1-9.3-1.4c-2.5-0.7-4.8-1.6-7.3-2.2c-1.5-0.4-3-0.7-4.5-1
								c-7.5-1.6-15-2.5-22.7-2c-1.2,0.1-1.8,0.4-2.7,1.1c-0.8,0.6-1.5,1.1-2.5,0.5c-0.5-0.2-1.3-0.7-1.2-1.3
								c0.1-0.8,0.7-0.6,1.2-0.8c0.8-0.3,0.1-0.7-0.6-0.6c-1.5,0.3-3,0.9-4.3,1.9c-0.2,0.1-0.3,0.3-0.6,0.3s-0.5,0-0.6-0.2
								c-0.1-0.2,0-0.5,0.1-0.7c0.9-1.6,2.4-2.8,4.1-3.5c1.9-0.7,3.9-0.7,5.7,0.1c1.8,0.8,3.9,0.3,5.8,0c4.7-0.8,9.5-1.7,14.3-2
								c5.2-0.3,9.8,0.5,14.8,1.5c1.7,0.3,5.2,0.6,6.4,2.1C424.6,210,429.2,214.5,426.8,215.9z"/>
						</g>
						<path class="st11" d="M476.1,299.5c-8.2-1.2-20.4-3.2-20.5-8.9c0-5.7-0.9-15.5,1.2-16.7c2.1-1.2,41.8,1,45.5,4.4
							C506,281.7,487.2,301.2,476.1,299.5z"/>
						<path class="st12" d="M498.1,290.7c1.2-0.7,2.3-1.6,2.9-2.9c3-6.3,1.2-77.1-7.9-79.7c-0.7-0.2-1.4-0.4-2.1-0.5
							c-7.1-1.7-14.5-2-21.6-0.9c-4.1,0.6-18.9,2-19.4,6.7c-1,9,5.6,56.7,5.6,71.6c0.2,2,0.4,4.1,1.5,5.7c2.8,4.1,11.9,3.5,16.3,3.5
							c5.3,0,10.5-0.4,15.7-1.3C491.7,292.4,495.4,292.1,498.1,290.7z"/>
						<g id="XMLID_1739_">
							<g>
								<path class="st13" d="M460.3,211.7c0.2-3.6,12.3-5.9,12.3-5.9s11.9,3.5,11.7,7.1c-0.2,3.6-5.4,14-12,13.6
									C465.7,226.2,460.1,215.3,460.3,211.7z"/>
							</g>
						</g>
						<g>
							<g id="XMLID_1742_">
								<g>
									<path class="st13" d="M471.6,218.1c0,0-0.1,0-0.1,0c-2.8-0.8-4.5-3.5-3.8-6.3l5.1-21.5c2.6,0.8,5.2,1.5,7.8,2.3
										c4.4,1.3,0.7,8.3-0.1,11.5l-2.6,10.2C477.3,217.1,474.4,218.9,471.6,218.1z"/>
								</g>
							</g>
						</g>
						<g>
							<path class="st13" d="M455.6,340.7c-1.6,0.1-3.3,1.3-3.5,2.9c-0.1,0.9,0.1,1.8,0.5,2.7c0.4,0.8,0.8,1.6,1.1,2.5
								c0.7,2,0.6,4.2,0.7,6.4c0.1,1.4,0.3,2.8,0.8,4.1c0.3,0.6,0.7,1.1,1,1.7c0.2,0.4,0.2,1.1,0.7,1.2c1.8,0.5,0.2-2.4,0.2-2.8
								c0,0,0.4,1,1.1,0.9c0.7-0.1-0.3-1.5-0.3-1.5s0.6,0.5,1.1,0.5c0.4,0-0.3-1.4-0.3-1.4s0.4,0.4,0.8,0.2s-0.4-1.6-0.4-1.6
								s0.3,0.4,0.7,0.3c0.3-0.2-0.9-1.3-1.1-1.6c-0.2-0.3,0.1-1.3,0.2-1.7c0.2-1.1,0.3-2.3,0.5-3.3c0.2-0.9,0.2-1.5,0.3-2.4
								c0-0.9,0.2-1.9,0.8-2.7c0.5-0.7,1.2-1.1,1.9-1.6c1.4-0.9,2.8-1.8,4.2-2.6c0.5-0.3,1.1-0.7,1.2-1.3c0.2-0.7-0.3-1.4-0.8-1.8
								c-0.6-0.6-1.3-1.1-2.1-1.1c-1.2-0.1-2.2,0.8-3,1.7c-0.7,0.9-1.4,2.4-2.6,2.7C458,341.1,456.8,340.6,455.6,340.7z"/>
							<path class="st14" d="M460,342.4c-0.8-1.5-0.9-3.6-0.3-4.8c0.6-1.1,1.5-2,2.4-3c7.5-7.8,11.8-18,16.1-27.8
								c2.5-5.7,5.1-11.5,8.4-16.8c2.7-4.3,6-9.5,10.9-11.4c12.9-5,19.6,11.3,17.2,21.5c-1.4,5.9-4.8,11.2-8.6,16
								c-10.7,13.1-25.3,22.8-41.5,27.6c-0.8,0.2-1.7,0.5-2.6,0.4C461.2,344,460.5,343.3,460,342.4z"/>
							<path class="st11" d="M467.9,342.2c9.9-1.6,19.2-6,26.8-12.6c7.5-6.6,13.2-15.2,16.1-24.8c2.1-6.7,2.6-14.6-1.5-20.3
								c1.3,1.8,0.4,6.8-0.1,8.9c-0.9,3.3-2,6.4-3.3,9.5c-4,9.3-10.3,17.6-18,24.2c-3.5,3-8.5,8.8-13.6,6.1c-2.3-1.2-3.7-3.7-4-6.3
								c0.4,3.8,0.8,7.7,1.2,11.5c0,0.4,0.1,0.9-0.1,1.3C471.1,340.7,468.8,341.6,467.9,342.2z"/>
						</g>
						<g>
							<path class="st13" d="M477,351.3c1.4,0.7,2.5,2.5,2,4.1c-0.3,0.9-0.9,1.6-1.6,2.2s-1.4,1.2-2.1,1.8c-1.5,1.5-2.3,3.6-3.3,5.5
								c-0.6,1.2-1.4,2.5-2.5,3.4c-0.5,0.4-1.1,0.7-1.6,1.1c-0.3,0.3-0.6,0.9-1.2,0.8c-1.8-0.3,0.8-2.2,1-2.6c0,0-0.7,0.7-1.3,0.3
								c-0.6-0.4,0.9-1.2,0.9-1.2s-0.8,0.2-1.2,0c-0.4-0.2,0.9-1.1,0.9-1.1s-0.5,0.2-0.8-0.1c-0.3-0.3,1.1-1.3,1.1-1.3
								s-0.5,0.3-0.7,0c-0.2-0.3,1.4-0.9,1.7-1c0.3-0.2,0.5-1.3,0.5-1.6c0.3-1.1,0.7-2.2,0.9-3.3c0.2-0.9,0.4-1.5,0.7-2.3
								c0.3-0.9,0.6-1.8,0.4-2.8c-0.2-0.8-0.6-1.5-1.1-2.2c-0.9-1.4-1.8-2.7-2.7-4.1c-0.3-0.5-0.7-1.1-0.6-1.7
								c0.1-0.7,0.8-1.1,1.5-1.3c0.8-0.3,1.6-0.5,2.4-0.2c1.1,0.4,1.7,1.6,2,2.7c0.3,1.1,0.3,2.7,1.3,3.5
								C474.6,350.7,475.9,350.8,477,351.3z"/>
							<path class="st14" d="M472.2,351.1c1.3-1,2.3-2.9,2.3-4.2c-0.1-1.3-0.5-2.5-1-3.7c-3.6-10.2-3.3-21.2-3.2-32
								c0.1-6.3,0.1-12.6-0.8-18.8c-0.7-5-1.6-11.1-5.3-14.9c-9.7-9.8-22.5,2.2-24.6,12.5c-1.2,6-0.3,12.2,1.3,18.1
								c4.4,16.3,13.7,31.2,26.5,42.2c0.7,0.6,1.4,1.1,2.2,1.4C470.5,352,471.4,351.7,472.2,351.1z"/>
							<path class="st11" d="M465.2,347.6c-8.3-5.5-15.1-13.4-19.2-22.5s-5.7-19.3-4.5-29.2c0.9-7,3.6-14.4,9.7-17.9
								c-1.9,1.1-3.2,6.1-3.5,8.1c-0.6,3.3-0.9,6.7-0.9,10c-0.1,10.2,2.1,20.3,6.4,29.4C456.7,333.2,460.3,340.7,465.2,347.6z"/>
						</g>
					</g>
					<path class="st12" d="M464.3,207.3c-5.6,1-35.3-1.7-36-1.3c-0.8,0.5-1.1,12.1,0.2,12.6c1.3,0.5,24.4,10.1,24.4,10.1
						s2.1-15.2,3.9-17C458.6,210.1,464.3,207.3,464.3,207.3z"/>
					<path class="st12" d="M481.8,206.3c5.6,0.8,35.2-3.1,36-2.7c0.8,0.4,3.5,12.1,2.2,12.7c-1.3,0.6-25.9,11-25.9,11
						s-2.7-15.1-4.5-16.8C487.6,208.7,481.8,206.3,481.8,206.3z"/>
				</g>
				<g>
					<path class="st15" d="M505.3,109.1c8.8,4,15.2,9.2,19,18.1c3.8,8.9,5.8,18.6,4.9,28.2c-1.1,12.2-7,24.2-17.1,31.2
						c-8.9,6.2-20.2,8.1-31.1,8.4c-8.5,0.2-17.3-0.6-24.8-4.6c-8.4-4.5-14.5-12.8-17.2-21.9c-7-23.5,6.4-53.2,30-61.5
						C480.8,102.9,493.9,104,505.3,109.1z"/>
					<g>
						<path class="st13" d="M517.2,169.2c1.5-2.3,4.9-3.1,7.3-1.8c2.4,1.3,3.8,4.3,3.2,7c-0.6,2.7-3,4.9-5.7,5.4
							c-2.7,0.5-5.6-0.5-7.6-2.4"/>
					</g>
					<g>
						<path class="st13" d="M445.6,159.2c-0.9-2.6-4-4.1-6.7-3.5c-2.7,0.7-4.7,3.3-4.7,6.1c-0.1,2.8,1.7,5.4,4.2,6.6
							c2.5,1.2,5.6,0.9,7.9-0.6"/>
					</g>
					<g>
						<path class="st16" d="M441.2,156.4c-1.4,10.7,0.1,22.2,6.5,30.9c6.8,9.3,18.3,14.2,29.6,16.1c9.6,1.6,20,1.4,28.2-3.8
							c13-8.2,16.3-25.4,18.4-40.6c1.2-8.5,2.3-17.6-1.2-25.5c-3.7-8.2-11.9-13.6-20.2-17c-8.3-3.4-17.4-5.2-26.3-4.1
							C453.1,115.3,444,135.6,441.2,156.4z"/>
					</g>
					<g>
						<path class="st13" d="M446.4,174.3c-7.9-21.6,4-48.2,26.6-56.1c11.5-4,25.5-2.7,35.8,4.3c11.6,8,13.2,18.6,12.7,30.5
							c-0.7,13.3,0.1,25-10.2,35.4c-13.3,13.5-39.9,13.6-54.8,0.4C451.8,184.8,448.4,179.7,446.4,174.3z"/>
					</g>
					<path class="st17" d="M513.2,166c0.4,0.7,0.7,1.7,0,2.1c-0.3,0.2-0.8,0.1-1.1,0.1c-2.9-0.5-5.9-1-8.8-1.6
						c-2.1-0.5-4.9-1.7-4.3-4.4c0.4-1.7,1.9-2.1,3.4-2.2C506.6,159.8,511.1,162.4,513.2,166z"/>
					<path class="st18" d="M449.5,159.9c-0.5,0.6-1,1.6-0.4,2.1c0.3,0.3,0.7,0.3,1.1,0.3c3,0.1,6,0.2,9,0.1c2.1-0.1,5.1-0.7,5.1-3.5
						c0-1.7-1.5-2.4-3-2.8C457.2,155.1,452.3,156.7,449.5,159.9z"/>
					<path class="st19" d="M479.8,165c-0.1,2.7-0.2,5.4-0.3,8.1c-1.5,0.4-3.1-0.8-4.5-0.2c-1,0.5-1.4,1.8-1,2.9
						c0.4,1,1.4,1.7,2.5,2.1c1.1,0.3,2.2,0.3,3.3,0.3"/>
					<path class="st20" d="M484.9,185.9c-1.7,0.4-6.2,1.2-10.5-1.4c-0.3-0.2-0.7,0-0.8,0.4c-0.2,1.6,0.7,4.2,5.6,5
						c5.5,0.8,6-1.7,6.3-3.4C485.6,186.2,485.2,185.9,484.9,185.9z"/>
					<g id="XMLID_1741_">
						<g>
							<path class="st21" d="M461.6,167.2c0.7,0.1,1.4,0.6,1.9,1.1c1.1,1.1,1.7,2.9,1.3,4.5c-0.4,1.6-1.8,2.8-3.5,3
								C455.5,176.1,456.6,166.1,461.6,167.2z"/>
						</g>
					</g>
					<g id="XMLID_1740_">
						<g>
							<path class="st21" d="M503.1,172.1c0.7,0.1,1.4,0.6,1.9,1.1c1.1,1.1,1.7,2.9,1.3,4.5c-0.4,1.6-1.8,2.8-3.5,3
								C496.9,181.1,498,171.1,503.1,172.1z"/>
						</g>
					</g>
					<path class="st22" d="M475.1,92c-7.4,2.7-12.2,10.7-12.2,18.6c0,7.9,4.3,15.4,10.4,20.5c6.1,5.1,13.8,7.9,21.6,9.2
						c7.8,1.3,15.8,1.3,23.7,1.3c-1.9,4.7,0,11.5,4.5,13.9c-0.2,5.7-0.8,11-1,16.7c4.9-13.8,7.8-29,2.3-42.6
						c-3.9-9.7-11.5-17.5-20.2-23.3C495.4,100.6,484.7,96,475.1,92z"/>
				</g>
				<g>
					<path class="st16" d="M351.8,245.5c0.6-4.3,13-28.6,19.1-32.8c6.1-4.1,7.8,7.7,3.9,9.7s-13.3,23.2-15.1,24.7
						C357.8,248.6,351.5,247.7,351.8,245.5z"/>
					<path class="st16" d="M431.9,247.6c-0.1-4.4-9.8-29.9-15.4-34.7c-5.6-4.8-8.6,6.8-4.9,9.2s9.6,21.7,11.3,23.4
						C424.5,247.2,431.9,249.9,431.9,247.6z"/>
					<path class="st23" d="M368.4,292c-1.2-0.7-2.3-1.6-2.9-2.9c-3-6.3-1.2-77.1,7.9-79.7c0.7-0.2,1.4-0.4,2.1-0.5
						c7.1-1.7,14.5-2,21.6-0.9c4.1,0.6,18.9,2,19.4,6.7c1,9-5.6,56.7-5.6,71.6c-0.2,2-0.4,4.1-1.5,5.7c-2.8,4.1-11.9,3.5-16.3,3.5
						c-5.3,0-10.5-0.4-15.7-1.3C374.8,293.6,371.1,293.4,368.4,292z"/>
					<g id="XMLID_1738_">
						<g>
							<path class="st16" d="M406.1,213c-0.2-3.6-12.3-5.9-12.3-5.9s-11.9,3.5-11.7,7.1c0.2,3.6,5.4,14,12,13.6
								C400.8,227.5,406.3,216.6,406.1,213z"/>
						</g>
					</g>
					<g>
						<path class="st16" d="M422.6,242.3c-0.8,1.5,1.5,7.8,2,9.2c0.8,2.4,1.9,4.7,2.7,7.2c0.5,1.5,0.9,2.9,1.3,4.4
							c2.1,7.3,3.4,14.9,3.4,22.6c0,1.2-0.3,1.8-0.9,2.8c-0.6,0.9-1,1.5-0.4,2.6c0.3,0.5,0.8,1.2,1.4,1.1c0.4-0.1,0.7-0.4,0.7-0.8
							c0-0.3-0.1-0.6,0.1-0.8c0.2-0.2,0.4-0.1,0.7-0.1c1.4,0.4,1.7,1.2,2.2,2.4c0.3,0.7,0.8,1.5,1.6,1.6c1,0.1,1.8-0.9,1.8-1.8
							s-0.6-1.8-1.3-2.5c-0.7-0.7-1.5-1.2-2.1-2c-1.7-2-1.2-4.8-1-7.1c0.5-4.7,1-9.6,1-14.4c0-5.2-1.1-9.7-2.5-14.7
							c-0.5-1.7-0.9-5.1-2.5-6.2C428.7,244.1,423.8,239.9,422.6,242.3z"/>
					</g>
					<path class="st10" d="M342.3,213.9c0.1,0,0.1-0.1,0.2-0.1"/>
					<g>
						<path class="st16" d="M409,341.2c1.6,0.1,3.3,1.3,3.5,2.9c0.1,0.9-0.1,1.8-0.5,2.7c-0.4,0.8-0.8,1.6-1.1,2.5
							c-0.7,2-0.6,4.2-0.7,6.4c-0.1,1.4-0.3,2.8-0.8,4.1c-0.3,0.6-0.7,1.1-1,1.7c-0.2,0.4-0.2,1.1-0.7,1.2c-1.8,0.5-0.2-2.4-0.2-2.8
							c0,0-0.4,1-1.1,0.9c-0.7-0.1,0.3-1.5,0.3-1.5s-0.6,0.5-1.1,0.5c-0.4,0,0.3-1.4,0.3-1.4s-0.4,0.4-0.8,0.2s0.4-1.6,0.4-1.6
							s-0.3,0.4-0.7,0.3c-0.3-0.2,0.9-1.3,1.1-1.6c0.2-0.3-0.1-1.3-0.2-1.7c-0.2-1.1-0.3-2.3-0.5-3.3c-0.2-0.9-0.2-1.5-0.3-2.4
							c0-0.9-0.2-1.9-0.8-2.7c-0.5-0.7-1.2-1.1-1.9-1.6c-1.4-0.9-2.8-1.8-4.2-2.6c-0.5-0.3-1.1-0.7-1.2-1.3
							c-0.2-0.7,0.3-1.4,0.8-1.8c0.6-0.6,1.3-1.1,2.1-1.1c1.2-0.1,2.2,0.8,3,1.7c0.7,0.9,1.4,2.4,2.6,2.7
							C406.5,341.7,407.8,341.2,409,341.2z"/>
						<path class="st24" d="M404.5,343c0.8-1.5,0.9-3.6,0.3-4.8c-0.6-1.1-1.5-2-2.4-3c-7.5-7.8-11.8-18-16.1-27.8
							c-2.5-5.7-5.1-11.5-8.4-16.8c-2.7-4.3-6-9.5-10.9-11.4c-12.9-5-19.6,11.3-17.2,21.5c1.4,5.9,4.8,11.2,8.6,16
							c10.7,13.1,25.3,22.8,41.5,27.6c0.8,0.2,1.7,0.5,2.6,0.4C403.4,344.5,404.1,343.8,404.5,343z"/>
						<path class="st25" d="M355,294.8c0.3,1.7,2.1,2.8,3.8,2.9c1.7,0.1,3.4-0.6,4.9-1.4c3.5-1.8,6.8-4.1,10.1-6.3
							c-0.5,2.8-2.5,5.2-4.9,6.7s-5.2,2.4-7.9,3.2c-1.7,0.5-3.4,1-5.1,1.5"/>
						<path class="st25" d="M396.7,342.7c-9.9-1.6-19.2-6-26.8-12.6c-7.5-6.6-13.2-15.2-16.1-24.8c-2.1-6.7-2.6-14.6,1.5-20.3
							c-1.3,1.8-0.4,6.8,0.1,8.9c0.9,3.3,2,6.4,3.3,9.5c4,9.3,10.3,17.6,18,24.2C383,333.1,389.4,338.4,396.7,342.7z"/>
					</g>
					<g>
						<path class="st16" d="M349,302.6c-1.4-0.7-3.5-0.5-4.5,0.8c-0.6,0.7-0.8,1.7-0.9,2.6s-0.1,1.8-0.2,2.7c-0.3,2.1-1.5,4-2.5,5.9
							c-0.6,1.3-1.2,2.6-1.3,4c-0.1,0.7,0.1,1.3,0,2c0,0.4-0.3,1.1,0,1.4c1.3,1.3,1.4-1.9,1.5-2.4c0,0-0.1,1,0.5,1.3
							s0.5-1.4,0.5-1.4s0.3,0.8,0.7,1s0.4-1.4,0.4-1.4s0.1,0.6,0.6,0.6c0.4,0,0.4-1.6,0.4-1.6s0.1,0.6,0.4,0.6s-0.1-1.6-0.2-2
							c0-0.4,0.8-1.1,1-1.4c0.7-0.9,1.3-1.8,2.1-2.6c0.6-0.6,1-1.2,1.5-2c0.5-0.8,1.1-1.5,2-1.9c0.8-0.3,1.6-0.4,2.5-0.4
							c1.6-0.1,3.3-0.2,4.9-0.2c0.6,0,1.3-0.1,1.7-0.6c0.5-0.5,0.4-1.3,0.2-2c-0.2-0.8-0.6-1.6-1.2-2c-1-0.7-2.3-0.4-3.4,0
							c-1.1,0.4-2.4,1.3-3.6,1C350.9,304.3,350.1,303.2,349,302.6z"/>
						<path class="st24" d="M352,306.4c0-1.7,0.9-3.6,2.1-4.3c1.1-0.7,2.3-1,3.5-1.4c10.3-3.1,19.1-9.8,27.7-16.3
							c5-3.8,10.1-7.5,15.6-10.4c4.5-2.4,9.9-5.3,15.1-4.5c13.7,2,11.5,19.4,4.4,27.2c-4.1,4.5-9.7,7.4-15.4,9.6
							c-15.7,6.1-33.3,7.4-49.7,3.6c-0.9-0.2-1.7-0.4-2.4-1C352.3,308.3,352,307.4,352,306.4z"/>
						<path class="st25" d="M359,310c9.4,3.4,19.7,4.2,29.5,2.2c9.8-2,19-6.8,26.2-13.6c5.1-4.8,9.5-11.4,8.7-18.4
							c0.2,2.2-3,6.2-4.5,7.6c-2.3,2.4-4.9,4.6-7.6,6.7c-8.1,6.1-17.6,10.3-27.5,12.2C375.6,308.3,367.4,309.8,359,310z"/>
					</g>
					<g>
						<path class="st21" d="M420.2,107.1c6.6,3.3,12.5,8,17.1,13.8c19.5,24.9,12.6,65.9-16.1,80.6c-13.6,7-30.5,7.1-44.2,0.3
							s-23.8-20.3-26.5-35.4c-4.3-24.5,8.7-55,33.5-62.7C396,100,409.1,101.6,420.2,107.1z"/>
						<g id="XMLID_1737_">
							<g>
								<path class="st16" d="M392.9,217.5c0,0-0.1,0-0.1,0c-2.9-0.3-5-2.7-4.8-5.6l1.4-22c2.7,0.3,5.4,0.6,8.1,1
									c4.6,0.5,2.1,8.1,1.9,11.4l-0.8,10.5C398.3,215.6,395.8,217.8,392.9,217.5z"/>
							</g>
						</g>
						<g>
							<path class="st13" d="M432.8,164.2c1.6-2.2,5-2.9,7.4-1.5s3.6,4.5,2.9,7.1c-0.7,2.7-3.1,4.8-5.8,5.2s-5.6-0.7-7.5-2.7"/>
						</g>
						<g>
							<path class="st13" d="M358.8,155.1c-0.8-2.6-3.9-4.3-6.6-3.7c-2.7,0.6-4.8,3.1-4.9,5.9c-0.2,2.8,1.5,5.5,4,6.7
								c2.5,1.3,5.5,1.1,7.9-0.3"/>
						</g>
						<g>
							<path class="st16" d="M354.6,152.1c-1.8,10.6-0.7,22.2,5.4,31.1c6.5,9.5,17.8,14.8,29,17.2c9.5,2,19.9,2.1,28.3-2.8
								c13.3-7.7,17.2-24.8,19.9-39.9c1.5-8.5,2.9-17.5-0.3-25.5c-3.4-8.4-11.4-14-19.6-17.7c-8.2-3.6-17.2-5.8-26.1-5
								C367.8,111.4,358.1,131.4,354.6,152.1z"/>
						</g>
						<g>
							<path class="st13" d="M359,170.1c-7.2-21.8,5.7-48,28.6-55.1c11.6-3.6,25.6-1.8,35.6,5.6c11.3,8.4,12.6,19,11.6,30.9
								c-1.1,13.3-0.8,25-11.5,35.1c-13.8,13-40.3,12.2-54.8-1.6C364.1,180.8,360.8,175.6,359,170.1z"/>
						</g>
						<path class="st19" d="M392.8,162c-0.2,2.7-0.4,5.4-0.6,8.1c-1.5,0.3-3-0.9-4.4-0.4c-1,0.4-1.5,1.8-1.1,2.8s1.4,1.8,2.4,2.1
							c1.1,0.4,2.2,0.4,3.3,0.4"/>
						<path class="st21" d="M414.6,159.6c-1.7-0.5-3.9-0.6-5.1,0.7c-0.5,0.5-0.8,1.2-0.5,1.8c0.4,0.8,1.6,0.7,2.6,0.6
							c3.7-0.5,7.6,0.5,10.6,2.8c0.6,0.5,2.1,1,1.8-0.3c-0.2-0.8-2.1-1.9-2.7-2.4C419.2,161.3,417,160.3,414.6,159.6z"/>
						<path class="st21" d="M376.2,153.7c1.8,0,3.9,0.4,4.8,2c0.3,0.6,0.4,1.4,0,1.8c-0.6,0.7-1.8,0.3-2.6-0.1
							c-3.5-1.5-7.5-1.5-11-0.1c-0.7,0.3-2.3,0.4-1.6-0.8c0.4-0.7,2.5-1.3,3.2-1.6C371.3,154.2,373.8,153.7,376.2,153.7z"/>
						<path class="st20" d="M397.1,183.2c-1.8,0.4-6.3,0.9-10.4-1.7c-0.3-0.2-0.7,0-0.8,0.3c-0.3,1.6,0.5,4.3,5.4,5.2
							c5.5,1,6-1.5,6.5-3.1C397.8,183.4,397.5,183.1,397.1,183.2z"/>
						<g id="XMLID_1736_">
							<g>
								<path class="st21" d="M374.6,163.6c0.7,0.2,1.3,0.6,1.8,1.1c1.1,1.2,1.6,3,1.1,4.5s-1.9,2.8-3.6,2.8
									C368.1,172.3,369.6,162.4,374.6,163.6z"/>
							</g>
						</g>
						<g id="XMLID_1735_">
							<g>
								<path class="st21" d="M415.8,170c0.7,0.2,1.3,0.6,1.8,1.1c1.1,1.2,1.6,3,1.1,4.5c-0.5,1.5-1.9,2.8-3.6,2.8
									C409.3,178.8,410.8,168.8,415.8,170z"/>
							</g>
						</g>
						<path class="st21" d="M350.7,161.7c0.2-2.3,0.3-4.6,0.5-6.9c0.8-7.4,1.5-15,3.9-22.1c5.7-17.5,23.2-30.5,41.6-30.9
							c18.4-0.4,36.5,11.8,42.9,29c-14.5-6-31.3-6.1-45.8-0.4c-14.6,5.8-26.7,17.3-33.2,31.6c-3.3,7.2-4.9,17.5-13.8,19.8
							c-4.9,1.3-10.5-0.6-13.7-4.6c4.8,0.7,9.9-1.1,13.3-4.5C349.6,169.5,350.3,165.7,350.7,161.7z"/>
						<path class="st21" d="M422.1,114.8c-2.3-2.9-4.6-5.9-6-9.3c-1.5-3.4-2-7.3-0.8-10.8c1.3-3.5,4.6-6.3,8.3-6.2
							c2.4,0.1,4.6,1.3,6.7,2.5c4.1,2.5,8.3,5.1,11.2,8.9s4.5,9,2.8,13.5c-1.6,4.5-7.1,7.6-11.5,5.7"/>
						<path class="st21" d="M414.4,121.3c9.8,4.6,16.9,14.4,18.3,25.1c1,8.1-1.1,16.3-0.6,24.5c0.5,8.2,5,17.2,13.1,18.5
							c-6.5-3.6-8.3-12.4-7.1-19.8c1.2-7.4,4.6-14.3,5.5-21.7c1.6-12.5-4.4-25.7-14.9-32.7"/>
					</g>
				</g>
				<path class="st16" d="M358.9,243.9c1.1,1.3,0.6,4.1,0.5,5.6c-0.2,2.6-0.7,5-0.9,7.6c-0.1,1.5-0.2,3.1-0.2,4.6
					c-0.1,4.1-0.1,8.2,0.2,12.3c0.2,2.6,0.7,5.1,1.3,7.6c0.2,1.1,0.3,2,0.4,3.1c0.1,1,0.8,2,1.3,2.8c0.6,1.1,1.1,2.5,0.5,3.6
					c-0.2,0.1-0.4-0.1-0.4-0.3c0-0.2,0-0.4-0.1-0.6c-0.3-0.3-0.8,0.1-0.9,0.5c-0.2,0.8,0.2,1.5,0.6,2.2c0.3,0.7,0.5,1.6,0.1,2.2
					c-0.4,0.5-1.1,0.6-1.6,0.4c-0.6-0.2-1.1-0.5-1.5-0.9c-0.8-0.8-1.6-1.7-2-2.8c-0.9-2.5,1.3-4.4,1.4-6.9c0-1.5-0.5-2.9-1-4.3
					c-1.5-4.3-2.9-8.6-4.1-12.9c-0.6-2-1.2-4-1.5-6.1c-0.4-3.2,0-6.4,0-9.6c0-1.7-0.3-5.2,0.9-6.6
					C353.6,243.3,357.1,241.9,358.9,243.9z"/>
				<path class="st10" d="M558.8,242.9c0,0,0-0.1,0-0.1c-1.5-5-6.8-7-9.3-11.4c-2.3-4.1-4.7-8.4-7.5-12.4c-3-4.2-6.6-7.3-10.5-10.6
					c-1.3-1.1-3.7-3.7-5.6-3.6c-2.7,0-5.1,0.7-4.8,3.4c0.2,1.7,1.8,4.1,3,5c2.1,1.5,4.3,2.8,6.3,4.3c1.2,0.9,2.4,1.9,3.6,2.8
					c3.7,3,7.2,6.2,10.5,9.8c1.1,1.2,2.2,2.6,3.1,3.9c0.5,0.7,0.9,1.4,1.3,2.1c0.4,0.6,0.9,1.2,1.1,1.9c0.2,0.6,0.3,1.2,0.2,1.9
					c-0.1,0.6-0.3,1.1-0.4,1.7s0,1.2,0.4,1.6c0.2,0.2,0.5,0.3,0.8,0.2c0.2-0.1,0.3-0.4,0.3-0.6c0.1-0.3,0.4-0.7,0.7-0.8
					c0.3-0.1,0.5,0.2,0.7,0.4c0.5,0.6,0.9,1.1,1.2,1.8c0.2,0.3,0.4,0.6,0.5,1c0.2,0.3,0.2,0.6,0.5,0.9c0.1,0.1,0.3,0.2,0.5,0.1
					c0.2-0.1,0.3-0.3,0.3-0.5c0-0.2-0.1-0.4-0.2-0.6c-0.2-0.6-0.5-1.2-0.8-1.8c0-0.1-0.1-0.2,0-0.3c0.3-0.3,0.8,1,0.8,1.1
					c0.3,0.6,0.6,1.1,0.8,1.7c0.1,0.1,0.1,0.2,0.2,0.3c0.1,0.1,0.2,0.2,0.3,0.1c0.2-0.1,0.3-0.4,0.3-0.6c-0.1-1.1-0.9-2-1.3-3
					c-0.1-0.1-0.1-0.3,0-0.4c0.1-0.1,0.2-0.1,0.3,0c0.1,0.1,0.1,0.2,0.2,0.3c0.3,0.7,0.6,1.4,1,2.1c0.1,0.2,0.2,0.3,0.3,0.5
					c0.1,0.1,0.3,0.2,0.5,0.2c0.2-0.3,0.1-0.7,0-1.1c-0.3-0.8-0.6-1.5-1.1-2.2c-0.1-0.1-0.1-0.2-0.1-0.3c0-0.1,0.1-0.2,0.2-0.2
					c0.1,0,0.2,0.1,0.3,0.2c0.2,0.5,0.5,0.9,0.7,1.4c0.1,0.1,0.2,0.3,0.3,0.4C558.9,243.6,558.9,243.1,558.8,242.9z"/>
				<path class="st12" d="M252.3,293c-1.9-0.4-3.8-0.8-5.7-1.4c-3.6-1.1-16.6-6.4-15.8-11.5c0.5-3.5,45.9-10.3,69-10
					c23.1,0.3,43.4,2.9,46,9c3.1,7.3-11.3,11.7-16,12.9c-12.6,3.3-26.1,1.5-39,1.3C277.9,293.1,265,295.4,252.3,293z"/>
			</g>
		</g>
	</g>
	<g>
		<g>
			<g>
				<defs>
					<rect id="SVGID_1_" y="330.2" width="750" height="169.8"/>
				</defs>
				<clipPath id="SVGID_00000070096900073466095740000016421205995854526628_">
					<use xlink:href="#SVGID_1_"  style="overflow:visible;"/>
				</clipPath>
				
					<polygon style="opacity:0.15;clip-path:url(#SVGID_00000070096900073466095740000016421205995854526628_);fill:#1D2A42;enable-background:new    ;" points="
					795.4,530.7 765.8,356.9 596.4,430.1 596.4,515.9 				"/>
			</g>
			<g>
				<defs>
					<rect id="SVGID_00000108297464231117711690000008786838224183529357_" y="330.2" width="750" height="169.8"/>
				</defs>
				<clipPath id="SVGID_00000149372237424386301850000012193518682993676178_">
					<use xlink:href="#SVGID_00000108297464231117711690000008786838224183529357_"  style="overflow:visible;"/>
				</clipPath>
				
					<polygon style="opacity:0.15;clip-path:url(#SVGID_00000149372237424386301850000012193518682993676178_);fill:#1D2A42;enable-background:new    ;" points="
					-41.6,530.7 -12,356.9 157.4,430.1 157.4,515.9 				"/>
			</g>
			<g>
				<defs>
					<rect id="SVGID_00000085965941254139838050000011266390003060436630_" y="330.2" width="750" height="169.8"/>
				</defs>
				<clipPath id="SVGID_00000094609115660123134560000011577350022293995156_">
					<use xlink:href="#SVGID_00000085965941254139838050000011266390003060436630_"  style="overflow:visible;"/>
				</clipPath>
				<g style="clip-path:url(#SVGID_00000094609115660123134560000011577350022293995156_);">
					<polygon class="st2" points="671,554.3 658.1,513.2 89.3,513.2 79.3,554.3 					"/>
					<g>
						<polygon class="st1" points="125.9,336.7 140.2,537.1 606.9,537.1 618.9,336.7 						"/>
						<polygon class="st29" points="193.4,412.8 218.3,537.1 184.7,537.1 						"/>
						<polygon class="st29" points="544.5,413.4 519.6,537.1 553.3,537.1 						"/>
						<path class="st2" d="M614.1,332.5l-480.2,0.7l-8,3.6c88,1.2,167.6,1.8,255.6,1.7c79.1-0.1,158.3-0.6,237.4-1.7
							C616.3,334,616.6,334.4,614.1,332.5z"/>
					</g>
					<path class="st2" d="M538.9,407.7H197.5l-5.6,5.7c53.7,6.2,114.6,10.4,181.4,10.2c62.8-0.2,120.2-4.3,171.1-10.2
						C542.7,411.5,540.8,409.6,538.9,407.7z"/>
					<g>
						<polygon class="st1" points="544.8,554.3 544.5,413.4 191.9,413.4 192.7,554.3 						"/>
					</g>
					<rect x="311.6" y="436.9" class="st29" width="124.2" height="5"/>
					<rect x="311.6" y="453" class="st29" width="124.2" height="5"/>
					<rect x="311.6" y="469.1" class="st29" width="124.2" height="5"/>
					<rect x="311.6" y="485.2" class="st29" width="124.2" height="5"/>
					<rect x="311.6" y="501.3" class="st29" width="124.2" height="5"/>
					<rect x="311.6" y="517.3" class="st29" width="124.2" height="5"/>
				</g>
			</g>
		</g>
	</g>
</g>
</svg>
